<svg width="15" height="15" viewBox="0 0 15 15" fill="none" xmlns="http://www.w3.org/2000/svg">
<path d="M10.5469 8.20313H9.60938V6.79688H10.5469C11.0104 6.79688 11.4636 6.65942 11.849 6.40188C12.2344 6.14435 12.5348 5.7783 12.7122 5.35004C12.8896 4.92178 12.936 4.45053 12.8456 3.99588C12.7552 3.54124 12.5319 3.12362 12.2042 2.79584C11.8764 2.46807 11.4588 2.24484 11.0041 2.15441C10.5495 2.06398 10.0782 2.11039 9.64996 2.28778C9.2217 2.46518 8.85565 2.76558 8.59812 3.15101C8.34058 3.53644 8.20313 3.98958 8.20313 4.45313V5.39063H6.79688V4.45313C6.79688 3.98958 6.65942 3.53644 6.40188 3.15101C6.14435 2.76558 5.7783 2.46518 5.35004 2.28778C4.92178 2.11039 4.45053 2.06398 3.99588 2.15441C3.54124 2.24484 3.12362 2.46807 2.79584 2.79584C2.46807 3.12362 2.24484 3.54124 2.15441 3.99588C2.06398 4.45053 2.11039 4.92178 2.28778 5.35004C2.46518 5.7783 2.76558 6.14435 3.15101 6.40188C3.53644 6.65942 3.98958 6.79688 4.45313 6.79688H5.39063V8.20313H4.45313C3.98958 8.20313 3.53644 8.34058 3.15101 8.59812C2.76558 8.85565 2.46518 9.2217 2.28778 9.64996C2.11039 10.0782 2.06398 10.5495 2.15441 11.0041C2.24484 11.4588 2.46807 11.8764 2.79584 12.2042C3.12362 12.5319 3.54124 12.7552 3.99588 12.8456C4.45053 12.936 4.92178 12.8896 5.35004 12.7122C5.7783 12.5348 6.14435 12.2344 6.40188 11.849C6.65942 11.4636 6.79688 11.0104 6.79688 10.5469V9.60938H8.20313V10.5469C8.20313 11.0104 8.34058 11.4636 8.59812 11.849C8.85565 12.2344 9.2217 12.5348 9.64996 12.7122C10.0782 12.8896 10.5495 12.936 11.0041 12.8456C11.4588 12.7552 11.8764 12.5319 12.2042 12.2042C12.5319 11.8764 12.7552 11.4588 12.8456 11.0041C12.936 10.5495 12.8896 10.0782 12.7122 9.64996C12.5348 9.2217 12.2344 8.85565 11.849 8.59812C11.4636 8.34058 11.0104 8.20313 10.5469 8.20313ZM9.60938 4.45313C9.60938 4.26771 9.66436 4.08645 9.76737 3.93228C9.87039 3.77811 10.0168 3.65795 10.1881 3.58699C10.3594 3.51603 10.5479 3.49747 10.7298 3.53364C10.9116 3.56981 11.0787 3.6591 11.2098 3.79021C11.3409 3.92133 11.4302 4.08837 11.4664 4.27023C11.5025 4.45209 11.484 4.64059 11.413 4.81189C11.3421 4.9832 11.2219 5.12962 11.0677 5.23263C10.9136 5.33564 10.7323 5.39063 10.5469 5.39063H9.60938V4.45313ZM3.51563 4.45313C3.51563 4.20449 3.6144 3.96603 3.79021 3.79021C3.96603 3.6144 4.20449 3.51563 4.45313 3.51563C4.70177 3.51563 4.94022 3.6144 5.11604 3.79021C5.29185 3.96603 5.39063 4.20449 5.39063 4.45313V5.39063H4.45313C4.20449 5.39063 3.96603 5.29185 3.79021 5.11604C3.6144 4.94022 3.51563 4.70177 3.51563 4.45313ZM5.39063 10.5469C5.39063 10.7323 5.33564 10.9136 5.23263 11.0677C5.12962 11.2219 4.9832 11.3421 4.81189 11.413C4.64059 11.484 4.45209 11.5025 4.27023 11.4664C4.08837 11.4302 3.92133 11.3409 3.79021 11.2098C3.6591 11.0787 3.56981 10.9116 3.53364 10.7298C3.49747 10.5479 3.51603 10.3594 3.58699 10.1881C3.65795 10.0168 3.77811 9.87039 3.93228 9.76737C4.08645 9.66436 4.26771 9.60938 4.45313 9.60938H5.39063V10.5469ZM6.79688 6.79688H8.20313V8.20313H6.79688V6.79688ZM10.5469 11.4844C10.2982 11.4844 10.0598 11.3856 9.88396 11.2098C9.70815 11.034 9.60938 10.7955 9.60938 10.5469V9.60938H10.5469C10.7955 9.60938 11.034 9.70815 11.2098 9.88396C11.3856 10.0598 11.4844 10.2982 11.4844 10.5469C11.4844 10.7955 11.3856 11.034 11.2098 11.2098C11.034 11.3856 10.7955 11.4844 10.5469 11.4844Z" fill="white"/>
</svg>
