<svg width="422" height="40" viewBox="0 0 422 40" fill="none" xmlns="http://www.w3.org/2000/svg">
<rect width="422" height="40" rx="8" fill="#DEEEE5"/>
<path d="M20 20H25V25H20V20ZM27 11H26V9H24V11H16V9H14V11H13C11.9 11 11 11.9 11 13V27C11 28.1 11.9 29 13 29H27C28.1 29 29 28.1 29 27V13C29 11.9 28.1 11 27 11ZM27 13V15H13V13H27ZM13 27V17H27V27H13Z" fill="#121926"/>
<path d="M37.598 12.4545H40.2614L44.892 23.7614H45.0625L49.6932 12.4545H52.3565V27H50.2685V16.4744H50.1335L45.8438 26.9787H44.1108L39.821 16.4673H39.6861V27H37.598V12.4545ZM58.5515 27.2415C57.8602 27.2415 57.2352 27.1136 56.6765 26.858C56.1178 26.5975 55.6751 26.2211 55.3484 25.7287C55.0264 25.2363 54.8654 24.6326 54.8654 23.9176C54.8654 23.3021 54.9838 22.7955 55.2205 22.3977C55.4573 22 55.7769 21.6851 56.1793 21.4531C56.5818 21.2211 57.0316 21.0459 57.5288 20.9276C58.0259 20.8092 58.5326 20.7192 59.0487 20.6577C59.7021 20.5819 60.2324 20.5204 60.6396 20.473C61.0468 20.4209 61.3427 20.3381 61.5273 20.2244C61.712 20.1108 61.8043 19.9261 61.8043 19.6705V19.6207C61.8043 19.0005 61.6291 18.5199 61.2788 18.179C60.9331 17.8381 60.417 17.6676 59.7305 17.6676C59.0155 17.6676 58.4521 17.8262 58.0401 18.1435C57.6329 18.456 57.3512 18.804 57.195 19.1875L55.1992 18.733C55.436 18.0701 55.7816 17.535 56.2362 17.1278C56.6954 16.7159 57.2234 16.4176 57.82 16.233C58.4165 16.0436 59.0439 15.9489 59.7021 15.9489C60.1377 15.9489 60.5993 16.0009 61.087 16.1051C61.5794 16.2045 62.0387 16.3892 62.4648 16.6591C62.8957 16.929 63.2485 17.3149 63.5231 17.8168C63.7977 18.3139 63.935 18.9602 63.935 19.7557V27H61.8612V25.5085H61.7759C61.6386 25.7831 61.4326 26.053 61.158 26.3182C60.8834 26.5833 60.5307 26.8035 60.0998 26.9787C59.6689 27.1539 59.1528 27.2415 58.5515 27.2415ZM59.0131 25.5369C59.6003 25.5369 60.1022 25.4209 60.5188 25.1889C60.9402 24.9569 61.2598 24.6539 61.4776 24.2798C61.7002 23.901 61.8114 23.4962 61.8114 23.0653V21.6591C61.7357 21.7348 61.5889 21.8059 61.3711 21.8722C61.158 21.9337 60.9142 21.9882 60.6396 22.0355C60.3649 22.0781 60.0974 22.1184 59.837 22.1562C59.5766 22.1894 59.3588 22.2178 59.1836 22.2415C58.7717 22.2936 58.3952 22.3812 58.0543 22.5043C57.7182 22.6274 57.4483 22.8049 57.2447 23.0369C57.0458 23.2642 56.9464 23.5672 56.9464 23.946C56.9464 24.4716 57.1405 24.8693 57.5288 25.1392C57.917 25.4044 58.4118 25.5369 59.0131 25.5369ZM68.8871 20.5227V27H66.7635V16.0909H68.8018V17.8665H68.9368C69.1877 17.2888 69.5807 16.8248 70.1158 16.4744C70.6555 16.1241 71.335 15.9489 72.1541 15.9489C72.8975 15.9489 73.5485 16.1051 74.1072 16.4176C74.666 16.7254 75.0992 17.1847 75.407 17.7955C75.7147 18.4062 75.8686 19.1615 75.8686 20.0611V27H73.745V20.3168C73.745 19.526 73.5391 18.9081 73.1271 18.4631C72.7152 18.0133 72.1494 17.7884 71.4297 17.7884C70.9373 17.7884 70.4993 17.8949 70.1158 18.108C69.737 18.321 69.4363 18.6335 69.2138 19.0455C68.996 19.4527 68.8871 19.9451 68.8871 20.5227ZM81.8913 27.2415C81.2 27.2415 80.575 27.1136 80.0163 26.858C79.4576 26.5975 79.0149 26.2211 78.6882 25.7287C78.3662 25.2363 78.2053 24.6326 78.2053 23.9176C78.2053 23.3021 78.3236 22.7955 78.5604 22.3977C78.7971 22 79.1167 21.6851 79.5192 21.4531C79.9216 21.2211 80.3714 21.0459 80.8686 20.9276C81.3658 20.8092 81.8724 20.7192 82.3885 20.6577C83.0419 20.5819 83.5722 20.5204 83.9794 20.473C84.3866 20.4209 84.6825 20.3381 84.8672 20.2244C85.0518 20.1108 85.1442 19.9261 85.1442 19.6705V19.6207C85.1442 19.0005 84.969 18.5199 84.6186 18.179C84.273 17.8381 83.7569 17.6676 83.0703 17.6676C82.3554 17.6676 81.7919 17.8262 81.38 18.1435C80.9728 18.456 80.6911 18.804 80.5348 19.1875L78.5391 18.733C78.7758 18.0701 79.1214 17.535 79.576 17.1278C80.0353 16.7159 80.5632 16.4176 81.1598 16.233C81.7564 16.0436 82.3838 15.9489 83.0419 15.9489C83.4775 15.9489 83.9392 16.0009 84.4268 16.1051C84.9193 16.2045 85.3786 16.3892 85.8047 16.6591C86.2356 16.929 86.5883 17.3149 86.8629 17.8168C87.1375 18.3139 87.2749 18.9602 87.2749 19.7557V27H85.201V25.5085H85.1158C84.9785 25.7831 84.7725 26.053 84.4979 26.3182C84.2232 26.5833 83.8705 26.8035 83.4396 26.9787C83.0088 27.1539 82.4927 27.2415 81.8913 27.2415ZM82.353 25.5369C82.9401 25.5369 83.442 25.4209 83.8587 25.1889C84.2801 24.9569 84.5997 24.6539 84.8175 24.2798C85.04 23.901 85.1513 23.4962 85.1513 23.0653V21.6591C85.0755 21.7348 84.9287 21.8059 84.7109 21.8722C84.4979 21.9337 84.254 21.9882 83.9794 22.0355C83.7048 22.0781 83.4373 22.1184 83.1768 22.1562C82.9164 22.1894 82.6986 22.2178 82.5234 22.2415C82.1115 22.2936 81.7351 22.3812 81.3942 22.5043C81.058 22.6274 80.7881 22.8049 80.5845 23.0369C80.3857 23.2642 80.2862 23.5672 80.2862 23.946C80.2862 24.4716 80.4804 24.8693 80.8686 25.1392C81.2569 25.4044 81.7517 25.5369 82.353 25.5369ZM90.1033 16.0909H92.2269V27.7102C92.2269 28.4394 92.0943 29.0549 91.8292 29.5568C91.5688 30.0587 91.1805 30.4399 90.6644 30.7003C90.1531 30.9607 89.521 31.0909 88.7681 31.0909C88.6924 31.0909 88.6213 31.0909 88.555 31.0909C88.484 31.0909 88.4106 31.0885 88.3349 31.0838V29.2585C88.4012 29.2585 88.4603 29.2585 88.5124 29.2585C88.5598 29.2585 88.6142 29.2585 88.6758 29.2585C89.1777 29.2585 89.5399 29.1236 89.7624 28.8537C89.9897 28.5885 90.1033 28.2027 90.1033 27.696V16.0909ZM91.1545 14.4077C90.7852 14.4077 90.4679 14.2846 90.2028 14.0384C89.9424 13.7874 89.8121 13.4891 89.8121 13.1435C89.8121 12.7931 89.9424 12.4948 90.2028 12.2486C90.4679 11.9976 90.7852 11.8722 91.1545 11.8722C91.5238 11.8722 91.8387 11.9976 92.0991 12.2486C92.3642 12.4948 92.4968 12.7931 92.4968 13.1435C92.4968 13.4891 92.3642 13.7874 92.0991 14.0384C91.8387 14.2846 91.5238 14.4077 91.1545 14.4077ZM99.7855 27.2202C98.7107 27.2202 97.785 26.9905 97.0085 26.5312C96.2367 26.0672 95.6402 25.4162 95.2188 24.5781C94.8021 23.7353 94.5938 22.7481 94.5938 21.6165C94.5938 20.4991 94.8021 19.5142 95.2188 18.6619C95.6402 17.8097 96.2273 17.1444 96.9801 16.6662C97.7377 16.188 98.6231 15.9489 99.6364 15.9489C100.252 15.9489 100.848 16.0507 101.426 16.2543C102.004 16.4579 102.522 16.7775 102.982 17.2131C103.441 17.6487 103.803 18.2145 104.068 18.9105C104.333 19.6018 104.466 20.4422 104.466 21.4318V22.1847H95.794V20.5938H102.385C102.385 20.035 102.271 19.5402 102.044 19.1094C101.817 18.6738 101.497 18.3305 101.085 18.0795C100.678 17.8286 100.2 17.7031 99.6506 17.7031C99.054 17.7031 98.5331 17.8499 98.0881 18.1435C97.6477 18.4323 97.3068 18.8111 97.0653 19.2798C96.8286 19.7438 96.7102 20.2481 96.7102 20.7926V22.0355C96.7102 22.7647 96.8381 23.3849 97.0938 23.8963C97.3542 24.4077 97.7164 24.7983 98.1804 25.0682C98.6444 25.3333 99.1866 25.4659 99.8068 25.4659C100.209 25.4659 100.576 25.4091 100.908 25.2955C101.239 25.1771 101.526 25.0019 101.767 24.7699C102.009 24.5379 102.193 24.2514 102.321 23.9105L104.331 24.2727C104.17 24.8646 103.881 25.383 103.464 25.8281C103.053 26.2685 102.534 26.6117 101.909 26.858C101.289 27.0994 100.581 27.2202 99.7855 27.2202ZM106.822 27V16.0909H108.86V17.8665H108.995C109.223 17.2652 109.594 16.7964 110.11 16.4602C110.627 16.1193 111.244 15.9489 111.964 15.9489C112.693 15.9489 113.304 16.1193 113.797 16.4602C114.294 16.8011 114.661 17.2699 114.897 17.8665H115.011C115.271 17.2841 115.686 16.8201 116.254 16.4744C116.822 16.1241 117.499 15.9489 118.285 15.9489C119.275 15.9489 120.082 16.259 120.707 16.8793C121.337 17.4995 121.652 18.4347 121.652 19.6847V27H119.528V19.8835C119.528 19.1449 119.327 18.6098 118.924 18.2784C118.522 17.947 118.041 17.7812 117.483 17.7812C116.791 17.7812 116.254 17.9943 115.87 18.4205C115.487 18.8419 115.295 19.384 115.295 20.0469V27H113.179V19.7486C113.179 19.1567 112.994 18.6809 112.625 18.321C112.255 17.9612 111.775 17.7812 111.183 17.7812C110.78 17.7812 110.409 17.8878 110.068 18.1009C109.732 18.3092 109.459 18.6004 109.251 18.9744C109.047 19.3485 108.946 19.7817 108.946 20.2741V27H106.822ZM129.2 27.2202C128.125 27.2202 127.199 26.9905 126.423 26.5312C125.651 26.0672 125.054 25.4162 124.633 24.5781C124.216 23.7353 124.008 22.7481 124.008 21.6165C124.008 20.4991 124.216 19.5142 124.633 18.6619C125.054 17.8097 125.641 17.1444 126.394 16.6662C127.152 16.188 128.037 15.9489 129.05 15.9489C129.666 15.9489 130.263 16.0507 130.84 16.2543C131.418 16.4579 131.936 16.7775 132.396 17.2131C132.855 17.6487 133.217 18.2145 133.482 18.9105C133.747 19.6018 133.88 20.4422 133.88 21.4318V22.1847H125.208V20.5938H131.799C131.799 20.035 131.685 19.5402 131.458 19.1094C131.231 18.6738 130.911 18.3305 130.499 18.0795C130.092 17.8286 129.614 17.7031 129.065 17.7031C128.468 17.7031 127.947 17.8499 127.502 18.1435C127.062 18.4323 126.721 18.8111 126.479 19.2798C126.243 19.7438 126.124 20.2481 126.124 20.7926V22.0355C126.124 22.7647 126.252 23.3849 126.508 23.8963C126.768 24.4077 127.13 24.7983 127.594 25.0682C128.058 25.3333 128.601 25.4659 129.221 25.4659C129.623 25.4659 129.99 25.4091 130.322 25.2955C130.653 25.1771 130.94 25.0019 131.181 24.7699C131.423 24.5379 131.607 24.2514 131.735 23.9105L133.745 24.2727C133.584 24.8646 133.295 25.383 132.879 25.8281C132.467 26.2685 131.948 26.6117 131.323 26.858C130.703 27.0994 129.995 27.2202 129.2 27.2202ZM138.36 20.5227V27H136.236V16.0909H138.275V17.8665H138.409C138.66 17.2888 139.053 16.8248 139.588 16.4744C140.128 16.1241 140.808 15.9489 141.627 15.9489C142.37 15.9489 143.021 16.1051 143.58 16.4176C144.139 16.7254 144.572 17.1847 144.88 17.7955C145.187 18.4062 145.341 19.1615 145.341 20.0611V27H143.218V20.3168C143.218 19.526 143.012 18.9081 142.6 18.4631C142.188 18.0133 141.622 17.7884 140.902 17.7884C140.41 17.7884 139.972 17.8949 139.588 18.108C139.21 18.321 138.909 18.6335 138.686 19.0455C138.469 19.4527 138.36 19.9451 138.36 20.5227ZM158.362 27H153.653V12.4545H158.511C159.936 12.4545 161.16 12.7457 162.183 13.3281C163.205 13.9058 163.989 14.7367 164.533 15.821C165.083 16.9006 165.357 18.1955 165.357 19.706C165.357 21.2211 165.08 22.5232 164.526 23.6122C163.977 24.7012 163.182 25.5393 162.14 26.1264C161.098 26.7088 159.839 27 158.362 27ZM155.847 25.0824H158.241C159.349 25.0824 160.27 24.8741 161.004 24.4574C161.737 24.036 162.287 23.4276 162.651 22.6321C163.016 21.8319 163.198 20.8565 163.198 19.706C163.198 18.5649 163.016 17.5966 162.651 16.8011C162.291 16.0057 161.754 15.402 161.039 14.9901C160.324 14.5781 159.436 14.3722 158.376 14.3722H155.847V25.0824ZM171.091 27.2415C170.399 27.2415 169.774 27.1136 169.216 26.858C168.657 26.5975 168.214 26.2211 167.887 25.7287C167.565 25.2363 167.404 24.6326 167.404 23.9176C167.404 23.3021 167.523 22.7955 167.76 22.3977C167.996 22 168.316 21.6851 168.718 21.4531C169.121 21.2211 169.571 21.0459 170.068 20.9276C170.565 20.8092 171.072 20.7192 171.588 20.6577C172.241 20.5819 172.771 20.5204 173.179 20.473C173.586 20.4209 173.882 20.3381 174.066 20.2244C174.251 20.1108 174.343 19.9261 174.343 19.6705V19.6207C174.343 19.0005 174.168 18.5199 173.818 18.179C173.472 17.8381 172.956 17.6676 172.27 17.6676C171.555 17.6676 170.991 17.8262 170.579 18.1435C170.172 18.456 169.89 18.804 169.734 19.1875L167.738 18.733C167.975 18.0701 168.321 17.535 168.775 17.1278C169.234 16.7159 169.762 16.4176 170.359 16.233C170.956 16.0436 171.583 15.9489 172.241 15.9489C172.677 15.9489 173.138 16.0009 173.626 16.1051C174.118 16.2045 174.578 16.3892 175.004 16.6591C175.435 16.929 175.788 17.3149 176.062 17.8168C176.337 18.3139 176.474 18.9602 176.474 19.7557V27H174.4V25.5085H174.315C174.178 25.7831 173.972 26.053 173.697 26.3182C173.422 26.5833 173.07 26.8035 172.639 26.9787C172.208 27.1539 171.692 27.2415 171.091 27.2415ZM171.552 25.5369C172.139 25.5369 172.641 25.4209 173.058 25.1889C173.479 24.9569 173.799 24.6539 174.017 24.2798C174.239 23.901 174.35 23.4962 174.35 23.0653V21.6591C174.275 21.7348 174.128 21.8059 173.91 21.8722C173.697 21.9337 173.453 21.9882 173.179 22.0355C172.904 22.0781 172.636 22.1184 172.376 22.1562C172.116 22.1894 171.898 22.2178 171.723 22.2415C171.311 22.2936 170.934 22.3812 170.593 22.5043C170.257 22.6274 169.987 22.8049 169.784 23.0369C169.585 23.2642 169.485 23.5672 169.485 23.946C169.485 24.4716 169.68 24.8693 170.068 25.1392C170.456 25.4044 170.951 25.5369 171.552 25.5369ZM187.477 18.7543L185.553 19.0952C185.472 18.849 185.344 18.6146 185.169 18.392C184.999 18.1695 184.767 17.9872 184.473 17.8452C184.179 17.7031 183.813 17.6321 183.372 17.6321C182.771 17.6321 182.269 17.767 181.866 18.0369C181.464 18.3021 181.263 18.6454 181.263 19.0668C181.263 19.4313 181.398 19.7249 181.668 19.9474C181.938 20.17 182.373 20.3523 182.974 20.4943L184.707 20.892C185.711 21.1241 186.459 21.4815 186.952 21.9645C187.444 22.4474 187.69 23.0748 187.69 23.8466C187.69 24.5 187.501 25.0824 187.122 25.5938C186.748 26.1004 186.225 26.4981 185.553 26.7869C184.885 27.0758 184.111 27.2202 183.23 27.2202C182.009 27.2202 181.012 26.9598 180.24 26.4389C179.468 25.9134 178.995 25.1676 178.82 24.2017L180.872 23.8892C181 24.4242 181.263 24.8291 181.661 25.1037C182.058 25.3736 182.577 25.5085 183.216 25.5085C183.912 25.5085 184.468 25.3641 184.885 25.0753C185.302 24.7817 185.51 24.4242 185.51 24.0028C185.51 23.6619 185.382 23.3755 185.126 23.1435C184.875 22.9115 184.49 22.7363 183.969 22.6179L182.122 22.2131C181.104 21.9811 180.351 21.6117 179.864 21.1051C179.381 20.5985 179.139 19.9569 179.139 19.1804C179.139 18.5365 179.319 17.973 179.679 17.4901C180.039 17.0071 180.536 16.6307 181.17 16.3608C181.805 16.0862 182.532 15.9489 183.351 15.9489C184.53 15.9489 185.458 16.2045 186.135 16.7159C186.812 17.2225 187.259 17.902 187.477 18.7543ZM192.149 20.5227V27H190.025V12.4545H192.12V17.8665H192.255C192.511 17.2794 192.902 16.813 193.427 16.4673C193.953 16.1217 194.639 15.9489 195.487 15.9489C196.235 15.9489 196.888 16.1027 197.447 16.4105C198.011 16.7183 198.446 17.1776 198.754 17.7884C199.066 18.3944 199.223 19.152 199.223 20.0611V27H197.099V20.3168C197.099 19.5166 196.893 18.8963 196.481 18.456C196.069 18.0109 195.496 17.7884 194.762 17.7884C194.261 17.7884 193.811 17.8949 193.413 18.108C193.02 18.321 192.71 18.6335 192.483 19.0455C192.26 19.4527 192.149 19.9451 192.149 20.5227ZM202.227 27V12.4545H204.35V17.8594H204.478C204.601 17.6321 204.779 17.3693 205.011 17.071C205.243 16.7727 205.565 16.5123 205.977 16.2898C206.389 16.0625 206.933 15.9489 207.61 15.9489C208.491 15.9489 209.277 16.1714 209.968 16.6165C210.66 17.0616 211.202 17.7031 211.595 18.5412C211.993 19.3793 212.191 20.3878 212.191 21.5668C212.191 22.7457 211.995 23.7566 211.602 24.5994C211.209 25.4375 210.669 26.0838 209.983 26.5384C209.296 26.9882 208.512 27.2131 207.632 27.2131C206.969 27.2131 206.427 27.1018 206.005 26.8793C205.589 26.6567 205.262 26.3963 205.025 26.098C204.788 25.7997 204.606 25.5346 204.478 25.3026H204.301V27H202.227ZM204.308 21.5455C204.308 22.3125 204.419 22.9848 204.642 23.5625C204.864 24.1402 205.186 24.5923 205.608 24.919C206.029 25.241 206.545 25.402 207.156 25.402C207.79 25.402 208.321 25.2339 208.747 24.8977C209.173 24.5568 209.495 24.0952 209.713 23.5128C209.935 22.9304 210.047 22.2746 210.047 21.5455C210.047 20.8258 209.938 20.1795 209.72 19.6065C209.507 19.0336 209.185 18.5814 208.754 18.25C208.328 17.9186 207.795 17.7528 207.156 17.7528C206.54 17.7528 206.02 17.9115 205.593 18.2287C205.172 18.5459 204.852 18.9886 204.635 19.5568C204.417 20.125 204.308 20.7879 204.308 21.5455ZM219.171 27.2202C218.148 27.2202 217.256 26.9858 216.494 26.517C215.731 26.0483 215.139 25.3925 214.718 24.5497C214.297 23.7069 214.086 22.7221 214.086 21.5952C214.086 20.4635 214.297 19.474 214.718 18.6264C215.139 17.7789 215.731 17.1207 216.494 16.652C217.256 16.1832 218.148 15.9489 219.171 15.9489C220.194 15.9489 221.086 16.1832 221.849 16.652C222.611 17.1207 223.203 17.7789 223.624 18.6264C224.046 19.474 224.256 20.4635 224.256 21.5952C224.256 22.7221 224.046 23.7069 223.624 24.5497C223.203 25.3925 222.611 26.0483 221.849 26.517C221.086 26.9858 220.194 27.2202 219.171 27.2202ZM219.178 25.4375C219.841 25.4375 220.39 25.2623 220.826 24.9119C221.262 24.5616 221.584 24.0952 221.792 23.5128C222.005 22.9304 222.112 22.2888 222.112 21.5881C222.112 20.892 222.005 20.2528 221.792 19.6705C221.584 19.0833 221.262 18.6122 220.826 18.2571C220.39 17.902 219.841 17.7244 219.178 17.7244C218.511 17.7244 217.957 17.902 217.516 18.2571C217.081 18.6122 216.756 19.0833 216.543 19.6705C216.335 20.2528 216.231 20.892 216.231 21.5881C216.231 22.2888 216.335 22.9304 216.543 23.5128C216.756 24.0952 217.081 24.5616 217.516 24.9119C217.957 25.2623 218.511 25.4375 219.178 25.4375ZM229.801 27.2415C229.11 27.2415 228.485 27.1136 227.926 26.858C227.368 26.5975 226.925 26.2211 226.598 25.7287C226.276 25.2363 226.115 24.6326 226.115 23.9176C226.115 23.3021 226.234 22.7955 226.471 22.3977C226.707 22 227.027 21.6851 227.429 21.4531C227.832 21.2211 228.282 21.0459 228.779 20.9276C229.276 20.8092 229.783 20.7192 230.299 20.6577C230.952 20.5819 231.482 20.5204 231.89 20.473C232.297 20.4209 232.593 20.3381 232.777 20.2244C232.962 20.1108 233.054 19.9261 233.054 19.6705V19.6207C233.054 19.0005 232.879 18.5199 232.529 18.179C232.183 17.8381 231.667 17.6676 230.98 17.6676C230.266 17.6676 229.702 17.8262 229.29 18.1435C228.883 18.456 228.601 18.804 228.445 19.1875L226.449 18.733C226.686 18.0701 227.032 17.535 227.486 17.1278C227.945 16.7159 228.473 16.4176 229.07 16.233C229.667 16.0436 230.294 15.9489 230.952 15.9489C231.388 15.9489 231.849 16.0009 232.337 16.1051C232.829 16.2045 233.289 16.3892 233.715 16.6591C234.146 16.929 234.498 17.3149 234.773 17.8168C235.048 18.3139 235.185 18.9602 235.185 19.7557V27H233.111V25.5085H233.026C232.889 25.7831 232.683 26.053 232.408 26.3182C232.133 26.5833 231.781 26.8035 231.35 26.9787C230.919 27.1539 230.403 27.2415 229.801 27.2415ZM230.263 25.5369C230.85 25.5369 231.352 25.4209 231.769 25.1889C232.19 24.9569 232.51 24.6539 232.728 24.2798C232.95 23.901 233.061 23.4962 233.061 23.0653V21.6591C232.986 21.7348 232.839 21.8059 232.621 21.8722C232.408 21.9337 232.164 21.9882 231.89 22.0355C231.615 22.0781 231.347 22.1184 231.087 22.1562C230.827 22.1894 230.609 22.2178 230.434 22.2415C230.022 22.2936 229.645 22.3812 229.304 22.5043C228.968 22.6274 228.698 22.8049 228.495 23.0369C228.296 23.2642 228.196 23.5672 228.196 23.946C228.196 24.4716 228.391 24.8693 228.779 25.1392C229.167 25.4044 229.662 25.5369 230.263 25.5369ZM238.013 27V16.0909H240.066V17.8239H240.18C240.379 17.2367 240.729 16.7751 241.231 16.4389C241.737 16.098 242.31 15.9276 242.95 15.9276C243.082 15.9276 243.238 15.9323 243.418 15.9418C243.603 15.9512 243.747 15.9631 243.852 15.9773V18.0085C243.766 17.9848 243.615 17.9588 243.397 17.9304C243.179 17.8973 242.961 17.8807 242.744 17.8807C242.242 17.8807 241.794 17.9872 241.401 18.2003C241.013 18.4086 240.705 18.6998 240.478 19.0739C240.251 19.4432 240.137 19.8646 240.137 20.3381V27H238.013ZM249.382 27.2131C248.502 27.2131 247.716 26.9882 247.025 26.5384C246.338 26.0838 245.798 25.4375 245.405 24.5994C245.017 23.7566 244.823 22.7457 244.823 21.5668C244.823 20.3878 245.019 19.3793 245.412 18.5412C245.81 17.7031 246.355 17.0616 247.046 16.6165C247.737 16.1714 248.521 15.9489 249.397 15.9489C250.074 15.9489 250.618 16.0625 251.03 16.2898C251.447 16.5123 251.769 16.7727 251.996 17.071C252.228 17.3693 252.408 17.6321 252.536 17.8594H252.664V12.4545H254.787V27H252.713V25.3026H252.536C252.408 25.5346 252.223 25.7997 251.982 26.098C251.745 26.3963 251.418 26.6567 251.002 26.8793C250.585 27.1018 250.045 27.2131 249.382 27.2131ZM249.851 25.402C250.462 25.402 250.978 25.241 251.4 24.919C251.826 24.5923 252.148 24.1402 252.365 23.5625C252.588 22.9848 252.699 22.3125 252.699 21.5455C252.699 20.7879 252.59 20.125 252.373 19.5568C252.155 18.9886 251.835 18.5459 251.414 18.2287C250.992 17.9115 250.471 17.7528 249.851 17.7528C249.212 17.7528 248.679 17.9186 248.253 18.25C247.827 18.5814 247.505 19.0336 247.287 19.6065C247.074 20.1795 246.968 20.8258 246.968 21.5455C246.968 22.2746 247.077 22.9304 247.294 23.5128C247.512 24.0952 247.834 24.5568 248.26 24.8977C248.691 25.2339 249.221 25.402 249.851 25.402ZM267.195 27.2131C266.314 27.2131 265.528 26.9882 264.837 26.5384C264.15 26.0838 263.611 25.4375 263.218 24.5994C262.829 23.7566 262.635 22.7457 262.635 21.5668C262.635 20.3878 262.832 19.3793 263.225 18.5412C263.623 17.7031 264.167 17.0616 264.858 16.6165C265.55 16.1714 266.333 15.9489 267.209 15.9489C267.886 15.9489 268.431 16.0625 268.843 16.2898C269.259 16.5123 269.581 16.7727 269.809 17.071C270.041 17.3693 270.221 17.6321 270.348 17.8594H270.476V12.4545H272.6V27H270.526V25.3026H270.348C270.221 25.5346 270.036 25.7997 269.794 26.098C269.558 26.3963 269.231 26.6567 268.814 26.8793C268.398 27.1018 267.858 27.2131 267.195 27.2131ZM267.664 25.402C268.275 25.402 268.791 25.241 269.212 24.919C269.638 24.5923 269.96 24.1402 270.178 23.5625C270.4 22.9848 270.512 22.3125 270.512 21.5455C270.512 20.7879 270.403 20.125 270.185 19.5568C269.967 18.9886 269.648 18.5459 269.226 18.2287C268.805 17.9115 268.284 17.7528 267.664 17.7528C267.025 17.7528 266.492 17.9186 266.066 18.25C265.64 18.5814 265.318 19.0336 265.1 19.6065C264.887 20.1795 264.78 20.8258 264.78 21.5455C264.78 22.2746 264.889 22.9304 265.107 23.5128C265.325 24.0952 265.647 24.5568 266.073 24.8977C266.504 25.2339 267.034 25.402 267.664 25.402ZM278.805 27.2415C278.114 27.2415 277.489 27.1136 276.93 26.858C276.372 26.5975 275.929 26.2211 275.602 25.7287C275.28 25.2363 275.119 24.6326 275.119 23.9176C275.119 23.3021 275.238 22.7955 275.474 22.3977C275.711 22 276.031 21.6851 276.433 21.4531C276.836 21.2211 277.286 21.0459 277.783 20.9276C278.28 20.8092 278.786 20.7192 279.303 20.6577C279.956 20.5819 280.486 20.5204 280.893 20.473C281.301 20.4209 281.597 20.3381 281.781 20.2244C281.966 20.1108 282.058 19.9261 282.058 19.6705V19.6207C282.058 19.0005 281.883 18.5199 281.533 18.179C281.187 17.8381 280.671 17.6676 279.984 17.6676C279.269 17.6676 278.706 17.8262 278.294 18.1435C277.887 18.456 277.605 18.804 277.449 19.1875L275.453 18.733C275.69 18.0701 276.036 17.535 276.49 17.1278C276.949 16.7159 277.477 16.4176 278.074 16.233C278.67 16.0436 279.298 15.9489 279.956 15.9489C280.392 15.9489 280.853 16.0009 281.341 16.1051C281.833 16.2045 282.293 16.3892 282.719 16.6591C283.15 16.929 283.502 17.3149 283.777 17.8168C284.052 18.3139 284.189 18.9602 284.189 19.7557V27H282.115V25.5085H282.03C281.893 25.7831 281.687 26.053 281.412 26.3182C281.137 26.5833 280.785 26.8035 280.354 26.9787C279.923 27.1539 279.407 27.2415 278.805 27.2415ZM279.267 25.5369C279.854 25.5369 280.356 25.4209 280.773 25.1889C281.194 24.9569 281.514 24.6539 281.732 24.2798C281.954 23.901 282.065 23.4962 282.065 23.0653V21.6591C281.99 21.7348 281.843 21.8059 281.625 21.8722C281.412 21.9337 281.168 21.9882 280.893 22.0355C280.619 22.0781 280.351 22.1184 280.091 22.1562C279.83 22.1894 279.613 22.2178 279.438 22.2415C279.026 22.2936 278.649 22.3812 278.308 22.5043C277.972 22.6274 277.702 22.8049 277.499 23.0369C277.3 23.2642 277.2 23.5672 277.2 23.946C277.2 24.4716 277.394 24.8693 277.783 25.1392C278.171 25.4044 278.666 25.5369 279.267 25.5369ZM289.141 20.5227V27H287.017V16.0909H289.056V17.8665H289.191C289.442 17.2888 289.835 16.8248 290.37 16.4744C290.909 16.1241 291.589 15.9489 292.408 15.9489C293.151 15.9489 293.802 16.1051 294.361 16.4176C294.92 16.7254 295.353 17.1847 295.661 17.7955C295.969 18.4062 296.123 19.1615 296.123 20.0611V27H293.999V20.3168C293.999 19.526 293.793 18.9081 293.381 18.4631C292.969 18.0133 292.403 17.7884 291.684 17.7884C291.191 17.7884 290.753 17.8949 290.37 18.108C289.991 18.321 289.69 18.6335 289.468 19.0455C289.25 19.4527 289.141 19.9451 289.141 20.5227ZM307.282 27L303.248 12.4545H305.556L308.39 23.7188H308.525L311.472 12.4545H313.759L316.707 23.7259H316.842L319.668 12.4545H321.984L317.942 27H315.734L312.673 16.1051H312.559L309.498 27H307.282ZM327.335 27.2202C326.313 27.2202 325.42 26.9858 324.658 26.517C323.895 26.0483 323.304 25.3925 322.882 24.5497C322.461 23.7069 322.25 22.7221 322.25 21.5952C322.25 20.4635 322.461 19.474 322.882 18.6264C323.304 17.7789 323.895 17.1207 324.658 16.652C325.42 16.1832 326.313 15.9489 327.335 15.9489C328.358 15.9489 329.25 16.1832 330.013 16.652C330.775 17.1207 331.367 17.7789 331.788 18.6264C332.21 19.474 332.42 20.4635 332.42 21.5952C332.42 22.7221 332.21 23.7069 331.788 24.5497C331.367 25.3925 330.775 26.0483 330.013 26.517C329.25 26.9858 328.358 27.2202 327.335 27.2202ZM327.342 25.4375C328.005 25.4375 328.554 25.2623 328.99 24.9119C329.426 24.5616 329.748 24.0952 329.956 23.5128C330.169 22.9304 330.276 22.2888 330.276 21.5881C330.276 20.892 330.169 20.2528 329.956 19.6705C329.748 19.0833 329.426 18.6122 328.99 18.2571C328.554 17.902 328.005 17.7244 327.342 17.7244C326.675 17.7244 326.121 17.902 325.68 18.2571C325.245 18.6122 324.92 19.0833 324.707 19.6705C324.499 20.2528 324.395 20.892 324.395 21.5881C324.395 22.2888 324.499 22.9304 324.707 23.5128C324.92 24.0952 325.245 24.5616 325.68 24.9119C326.121 25.2623 326.675 25.4375 327.342 25.4375ZM334.791 27V16.0909H336.843V17.8239H336.957C337.156 17.2367 337.506 16.7751 338.008 16.4389C338.515 16.098 339.088 15.9276 339.727 15.9276C339.859 15.9276 340.016 15.9323 340.196 15.9418C340.38 15.9512 340.525 15.9631 340.629 15.9773V18.0085C340.544 17.9848 340.392 17.9588 340.174 17.9304C339.957 17.8973 339.739 17.8807 339.521 17.8807C339.019 17.8807 338.572 17.9872 338.179 18.2003C337.79 18.4086 337.483 18.6998 337.255 19.0739C337.028 19.4432 336.914 19.8646 336.914 20.3381V27H334.791ZM344.42 23.2997L344.406 20.7074H344.775L349.121 16.0909H351.664L346.707 21.3466H346.373L344.42 23.2997ZM342.467 27V12.4545H344.59V27H342.467ZM349.356 27L345.45 21.8153L346.913 20.331L351.962 27H349.356ZM361.774 18.7543L359.849 19.0952C359.769 18.849 359.641 18.6146 359.466 18.392C359.295 18.1695 359.063 17.9872 358.77 17.8452C358.476 17.7031 358.109 17.6321 357.669 17.6321C357.068 17.6321 356.566 17.767 356.163 18.0369C355.761 18.3021 355.56 18.6454 355.56 19.0668C355.56 19.4313 355.695 19.7249 355.964 19.9474C356.234 20.17 356.67 20.3523 357.271 20.4943L359.004 20.892C360.008 21.1241 360.756 21.4815 361.249 21.9645C361.741 22.4474 361.987 23.0748 361.987 23.8466C361.987 24.5 361.798 25.0824 361.419 25.5938C361.045 26.1004 360.522 26.4981 359.849 26.7869C359.182 27.0758 358.408 27.2202 357.527 27.2202C356.305 27.2202 355.309 26.9598 354.537 26.4389C353.765 25.9134 353.292 25.1676 353.116 24.2017L355.169 23.8892C355.297 24.4242 355.56 24.8291 355.957 25.1037C356.355 25.3736 356.874 25.5085 357.513 25.5085C358.209 25.5085 358.765 25.3641 359.182 25.0753C359.598 24.7817 359.807 24.4242 359.807 24.0028C359.807 23.6619 359.679 23.3755 359.423 23.1435C359.172 22.9115 358.786 22.7363 358.266 22.6179L356.419 22.2131C355.401 21.9811 354.648 21.6117 354.161 21.1051C353.678 20.5985 353.436 19.9569 353.436 19.1804C353.436 18.5365 353.616 17.973 353.976 17.4901C354.336 17.0071 354.833 16.6307 355.467 16.3608C356.102 16.0862 356.829 15.9489 357.648 15.9489C358.827 15.9489 359.755 16.2045 360.432 16.7159C361.109 17.2225 361.556 17.902 361.774 18.7543ZM364.322 31.0909V16.0909H366.396V17.8594H366.574C366.697 17.6321 366.874 17.3693 367.106 17.071C367.338 16.7727 367.66 16.5123 368.072 16.2898C368.484 16.0625 369.029 15.9489 369.706 15.9489C370.586 15.9489 371.372 16.1714 372.064 16.6165C372.755 17.0616 373.297 17.7031 373.69 18.5412C374.088 19.3793 374.287 20.3878 374.287 21.5668C374.287 22.7457 374.09 23.7566 373.697 24.5994C373.304 25.4375 372.764 26.0838 372.078 26.5384C371.391 26.9882 370.608 27.2131 369.727 27.2131C369.064 27.2131 368.522 27.1018 368.1 26.8793C367.684 26.6567 367.357 26.3963 367.12 26.098C366.884 25.7997 366.701 25.5346 366.574 25.3026H366.446V31.0909H364.322ZM366.403 21.5455C366.403 22.3125 366.514 22.9848 366.737 23.5625C366.959 24.1402 367.281 24.5923 367.703 24.919C368.124 25.241 368.64 25.402 369.251 25.402C369.886 25.402 370.416 25.2339 370.842 24.8977C371.268 24.5568 371.59 24.0952 371.808 23.5128C372.03 22.9304 372.142 22.2746 372.142 21.5455C372.142 20.8258 372.033 20.1795 371.815 19.6065C371.602 19.0336 371.28 18.5814 370.849 18.25C370.423 17.9186 369.89 17.7528 369.251 17.7528C368.636 17.7528 368.115 17.9115 367.689 18.2287C367.267 18.5459 366.948 18.9886 366.73 19.5568C366.512 20.125 366.403 20.7879 366.403 21.5455ZM379.841 27.2415C379.149 27.2415 378.524 27.1136 377.966 26.858C377.407 26.5975 376.964 26.2211 376.637 25.7287C376.315 25.2363 376.154 24.6326 376.154 23.9176C376.154 23.3021 376.273 22.7955 376.51 22.3977C376.746 22 377.066 21.6851 377.468 21.4531C377.871 21.2211 378.321 21.0459 378.818 20.9276C379.315 20.8092 379.822 20.7192 380.338 20.6577C380.991 20.5819 381.521 20.5204 381.929 20.473C382.336 20.4209 382.632 20.3381 382.816 20.2244C383.001 20.1108 383.093 19.9261 383.093 19.6705V19.6207C383.093 19.0005 382.918 18.5199 382.568 18.179C382.222 17.8381 381.706 17.6676 381.02 17.6676C380.305 17.6676 379.741 17.8262 379.329 18.1435C378.922 18.456 378.64 18.804 378.484 19.1875L376.488 18.733C376.725 18.0701 377.071 17.535 377.525 17.1278C377.984 16.7159 378.512 16.4176 379.109 16.233C379.706 16.0436 380.333 15.9489 380.991 15.9489C381.427 15.9489 381.888 16.0009 382.376 16.1051C382.868 16.2045 383.328 16.3892 383.754 16.6591C384.185 16.929 384.538 17.3149 384.812 17.8168C385.087 18.3139 385.224 18.9602 385.224 19.7557V27H383.15V25.5085H383.065C382.928 25.7831 382.722 26.053 382.447 26.3182C382.172 26.5833 381.82 26.8035 381.389 26.9787C380.958 27.1539 380.442 27.2415 379.841 27.2415ZM380.302 25.5369C380.889 25.5369 381.391 25.4209 381.808 25.1889C382.229 24.9569 382.549 24.6539 382.767 24.2798C382.989 23.901 383.1 23.4962 383.1 23.0653V21.6591C383.025 21.7348 382.878 21.8059 382.66 21.8722C382.447 21.9337 382.203 21.9882 381.929 22.0355C381.654 22.0781 381.386 22.1184 381.126 22.1562C380.866 22.1894 380.648 22.2178 380.473 22.2415C380.061 22.2936 379.684 22.3812 379.343 22.5043C379.007 22.6274 378.737 22.8049 378.534 23.0369C378.335 23.2642 378.235 23.5672 378.235 23.946C378.235 24.4716 378.43 24.8693 378.818 25.1392C379.206 25.4044 379.701 25.5369 380.302 25.5369ZM392.648 27.2202C391.592 27.2202 390.683 26.9811 389.92 26.5028C389.163 26.0199 388.58 25.3546 388.173 24.5071C387.766 23.6596 387.562 22.6889 387.562 21.5952C387.562 20.4872 387.771 19.5095 388.188 18.6619C388.604 17.8097 389.191 17.1444 389.949 16.6662C390.706 16.188 391.599 15.9489 392.626 15.9489C393.455 15.9489 394.194 16.1027 394.842 16.4105C395.491 16.7135 396.014 17.1397 396.412 17.6889C396.814 18.2382 397.054 18.8797 397.129 19.6136H395.062C394.949 19.1023 394.688 18.6619 394.281 18.2926C393.879 17.9233 393.339 17.7386 392.662 17.7386C392.07 17.7386 391.552 17.8949 391.107 18.2074C390.666 18.5152 390.323 18.9555 390.077 19.5284C389.83 20.0966 389.707 20.7689 389.707 21.5455C389.707 22.3409 389.828 23.0275 390.07 23.6051C390.311 24.1828 390.652 24.6302 391.092 24.9474C391.537 25.2647 392.061 25.4233 392.662 25.4233C393.064 25.4233 393.429 25.3499 393.756 25.2031C394.087 25.0516 394.364 24.8362 394.587 24.5568C394.814 24.2775 394.973 23.9413 395.062 23.5483H397.129C397.054 24.2538 396.824 24.8835 396.44 25.4375C396.057 25.9915 395.543 26.4271 394.899 26.7443C394.26 27.0616 393.509 27.2202 392.648 27.2202ZM404.102 27.2202C403.027 27.2202 402.101 26.9905 401.325 26.5312C400.553 26.0672 399.957 25.4162 399.535 24.5781C399.118 23.7353 398.91 22.7481 398.91 21.6165C398.91 20.4991 399.118 19.5142 399.535 18.6619C399.957 17.8097 400.544 17.1444 401.297 16.6662C402.054 16.188 402.94 15.9489 403.953 15.9489C404.568 15.9489 405.165 16.0507 405.743 16.2543C406.32 16.4579 406.839 16.7775 407.298 17.2131C407.757 17.6487 408.119 18.2145 408.385 18.9105C408.65 19.6018 408.782 20.4422 408.782 21.4318V22.1847H400.11V20.5938H406.701C406.701 20.035 406.588 19.5402 406.36 19.1094C406.133 18.6738 405.814 18.3305 405.402 18.0795C404.994 17.8286 404.516 17.7031 403.967 17.7031C403.37 17.7031 402.85 17.8499 402.404 18.1435C401.964 18.4323 401.623 18.8111 401.382 19.2798C401.145 19.7438 401.027 20.2481 401.027 20.7926V22.0355C401.027 22.7647 401.154 23.3849 401.41 23.8963C401.671 24.4077 402.033 24.7983 402.497 25.0682C402.961 25.3333 403.503 25.4659 404.123 25.4659C404.526 25.4659 404.893 25.4091 405.224 25.2955C405.556 25.1771 405.842 25.0019 406.083 24.7699C406.325 24.5379 406.51 24.2514 406.637 23.9105L408.647 24.2727C408.486 24.8646 408.198 25.383 407.781 25.8281C407.369 26.2685 406.85 26.6117 406.225 26.858C405.605 27.0994 404.897 27.2202 404.102 27.2202Z" fill="#121926"/>
</svg>
