<svg width="198" height="40" viewBox="0 0 198 40" fill="none" xmlns="http://www.w3.org/2000/svg">
<rect width="198" height="40" rx="8" fill="#FDECC8"/>
<path d="M20 20H25V25H20V20ZM27 11H26V9H24V11H16V9H14V11H13C11.9 11 11 11.9 11 13V27C11 28.1 11.9 29 13 29H27C28.1 29 29 28.1 29 27V13C29 11.9 28.1 11 27 11ZM27 13V15H13V13H27ZM13 27V17H27V27H13Z" fill="#121926"/>
<path d="M37.598 27V12.4545H46.6179V14.3438H39.7926V18.7756H45.9716V20.6577H39.7926V27H37.598ZM49.1463 27V16.0909H51.2699V27H49.1463ZM50.2188 14.4077C49.8494 14.4077 49.5322 14.2846 49.267 14.0384C49.0066 13.7874 48.8764 13.4891 48.8764 13.1435C48.8764 12.7931 49.0066 12.4948 49.267 12.2486C49.5322 11.9976 49.8494 11.8722 50.2188 11.8722C50.5881 11.8722 50.9029 11.9976 51.1634 12.2486C51.4285 12.4948 51.5611 12.7931 51.5611 13.1435C51.5611 13.4891 51.4285 13.7874 51.1634 14.0384C50.9029 14.2846 50.5881 14.4077 50.2188 14.4077ZM59.2191 16.0909V17.7955H53.2603V16.0909H59.2191ZM54.8583 13.4773H56.9819V23.7969C56.9819 24.2088 57.0434 24.5189 57.1665 24.7273C57.2897 24.9309 57.4483 25.0705 57.6424 25.1463C57.8413 25.2173 58.0567 25.2528 58.2887 25.2528C58.4592 25.2528 58.6083 25.241 58.7362 25.2173C58.864 25.1937 58.9634 25.1747 59.0344 25.1605L59.418 26.9148C59.2949 26.9621 59.1197 27.0095 58.8924 27.0568C58.6651 27.1089 58.381 27.1373 58.0401 27.142C57.4814 27.1515 56.9606 27.0521 56.4776 26.8438C55.9947 26.6354 55.604 26.3134 55.3058 25.8778C55.0075 25.4422 54.8583 24.8954 54.8583 24.2372V13.4773ZM68.4787 22.4759V16.0909H70.6094V27H68.5213V25.1108H68.4077C68.1567 25.6932 67.7543 26.1785 67.2003 26.5668C66.651 26.9503 65.9669 27.142 65.1477 27.142C64.447 27.142 63.8267 26.9882 63.2869 26.6804C62.7519 26.3679 62.3305 25.9062 62.0227 25.2955C61.7197 24.6847 61.5682 23.9295 61.5682 23.0298V16.0909H63.6918V22.7741C63.6918 23.5175 63.8977 24.1094 64.3097 24.5497C64.7216 24.9901 65.2566 25.2102 65.9148 25.2102C66.3125 25.2102 66.7079 25.1108 67.1009 24.9119C67.4986 24.7131 67.8277 24.4124 68.0881 24.0099C68.3532 23.6075 68.4834 23.0961 68.4787 22.4759ZM73.4627 27V16.0909H75.5153V17.8239H75.6289C75.8278 17.2367 76.1781 16.7751 76.68 16.4389C77.1867 16.098 77.7596 15.9276 78.3988 15.9276C78.5314 15.9276 78.6876 15.9323 78.8675 15.9418C79.0522 15.9512 79.1966 15.9631 79.3008 15.9773V18.0085C79.2156 17.9848 79.064 17.9588 78.8462 17.9304C78.6284 17.8973 78.4106 17.8807 78.1928 17.8807C77.6909 17.8807 77.2435 17.9872 76.8505 18.2003C76.4622 18.4086 76.1545 18.6998 75.9272 19.0739C75.6999 19.4432 75.5863 19.8646 75.5863 20.3381V27H73.4627ZM86.6019 27V12.4545H88.7965V19.4006H88.9741L95.0749 12.4545H97.8377L91.9712 19.0028L97.859 27H95.217L90.5153 20.5014L88.7965 22.4759V27H86.6019ZM103.507 27.2202C102.484 27.2202 101.592 26.9858 100.83 26.517C100.067 26.0483 99.4754 25.3925 99.054 24.5497C98.6326 23.7069 98.4219 22.7221 98.4219 21.5952C98.4219 20.4635 98.6326 19.474 99.054 18.6264C99.4754 17.7789 100.067 17.1207 100.83 16.652C101.592 16.1832 102.484 15.9489 103.507 15.9489C104.53 15.9489 105.422 16.1832 106.185 16.652C106.947 17.1207 107.539 17.7789 107.96 18.6264C108.382 19.474 108.592 20.4635 108.592 21.5952C108.592 22.7221 108.382 23.7069 107.96 24.5497C107.539 25.3925 106.947 26.0483 106.185 26.517C105.422 26.9858 104.53 27.2202 103.507 27.2202ZM103.514 25.4375C104.177 25.4375 104.726 25.2623 105.162 24.9119C105.598 24.5616 105.92 24.0952 106.128 23.5128C106.341 22.9304 106.447 22.2888 106.447 21.5881C106.447 20.892 106.341 20.2528 106.128 19.6705C105.92 19.0833 105.598 18.6122 105.162 18.2571C104.726 17.902 104.177 17.7244 103.514 17.7244C102.847 17.7244 102.293 17.902 101.852 18.2571C101.417 18.6122 101.092 19.0833 100.879 19.6705C100.671 20.2528 100.567 20.892 100.567 21.5881C100.567 22.2888 100.671 22.9304 100.879 23.5128C101.092 24.0952 101.417 24.5616 101.852 24.9119C102.293 25.2623 102.847 25.4375 103.514 25.4375ZM113.086 12.4545V27H110.963V12.4545H113.086ZM119.118 27.2415C118.427 27.2415 117.802 27.1136 117.243 26.858C116.684 26.5975 116.241 26.2211 115.915 25.7287C115.593 25.2363 115.432 24.6326 115.432 23.9176C115.432 23.3021 115.55 22.7955 115.787 22.3977C116.024 22 116.343 21.6851 116.746 21.4531C117.148 21.2211 117.598 21.0459 118.095 20.9276C118.592 20.8092 119.099 20.7192 119.615 20.6577C120.268 20.5819 120.799 20.5204 121.206 20.473C121.613 20.4209 121.909 20.3381 122.094 20.2244C122.278 20.1108 122.371 19.9261 122.371 19.6705V19.6207C122.371 19.0005 122.196 18.5199 121.845 18.179C121.5 17.8381 120.983 17.6676 120.297 17.6676C119.582 17.6676 119.018 17.8262 118.607 18.1435C118.199 18.456 117.918 18.804 117.761 19.1875L115.766 18.733C116.002 18.0701 116.348 17.535 116.803 17.1278C117.262 16.7159 117.79 16.4176 118.386 16.233C118.983 16.0436 119.61 15.9489 120.268 15.9489C120.704 15.9489 121.166 16.0009 121.653 16.1051C122.146 16.2045 122.605 16.3892 123.031 16.6591C123.462 16.929 123.815 17.3149 124.089 17.8168C124.364 18.3139 124.501 18.9602 124.501 19.7557V27H122.428V25.5085H122.342C122.205 25.7831 121.999 26.053 121.724 26.3182C121.45 26.5833 121.097 26.8035 120.666 26.9787C120.235 27.1539 119.719 27.2415 119.118 27.2415ZM119.58 25.5369C120.167 25.5369 120.669 25.4209 121.085 25.1889C121.507 24.9569 121.826 24.6539 122.044 24.2798C122.267 23.901 122.378 23.4962 122.378 23.0653V21.6591C122.302 21.7348 122.155 21.8059 121.938 21.8722C121.724 21.9337 121.481 21.9882 121.206 22.0355C120.931 22.0781 120.664 22.1184 120.403 22.1562C120.143 22.1894 119.925 22.2178 119.75 22.2415C119.338 22.2936 118.962 22.3812 118.621 22.5043C118.285 22.6274 118.015 22.8049 117.811 23.0369C117.612 23.2642 117.513 23.5672 117.513 23.946C117.513 24.4716 117.707 24.8693 118.095 25.1392C118.483 25.4044 118.978 25.5369 119.58 25.5369ZM127.5 27V12.4545H129.624V17.8594H129.752C129.875 17.6321 130.052 17.3693 130.284 17.071C130.516 16.7727 130.838 16.5123 131.25 16.2898C131.662 16.0625 132.207 15.9489 132.884 15.9489C133.765 15.9489 134.551 16.1714 135.242 16.6165C135.933 17.0616 136.475 17.7031 136.868 18.5412C137.266 19.3793 137.465 20.3878 137.465 21.5668C137.465 22.7457 137.268 23.7566 136.875 24.5994C136.482 25.4375 135.943 26.0838 135.256 26.5384C134.569 26.9882 133.786 27.2131 132.905 27.2131C132.242 27.2131 131.7 27.1018 131.279 26.8793C130.862 26.6567 130.535 26.3963 130.299 26.098C130.062 25.7997 129.88 25.5346 129.752 25.3026H129.574V27H127.5ZM129.581 21.5455C129.581 22.3125 129.693 22.9848 129.915 23.5625C130.138 24.1402 130.46 24.5923 130.881 24.919C131.302 25.241 131.819 25.402 132.429 25.402C133.064 25.402 133.594 25.2339 134.02 24.8977C134.446 24.5568 134.768 24.0952 134.986 23.5128C135.209 22.9304 135.32 22.2746 135.32 21.5455C135.32 20.8258 135.211 20.1795 134.993 19.6065C134.78 19.0336 134.458 18.5814 134.027 18.25C133.601 17.9186 133.069 17.7528 132.429 17.7528C131.814 17.7528 131.293 17.9115 130.867 18.2287C130.445 18.5459 130.126 18.9886 129.908 19.5568C129.69 20.125 129.581 20.7879 129.581 21.5455ZM144.445 27.2202C143.422 27.2202 142.529 26.9858 141.767 26.517C141.005 26.0483 140.413 25.3925 139.991 24.5497C139.57 23.7069 139.359 22.7221 139.359 21.5952C139.359 20.4635 139.57 19.474 139.991 18.6264C140.413 17.7789 141.005 17.1207 141.767 16.652C142.529 16.1832 143.422 15.9489 144.445 15.9489C145.467 15.9489 146.36 16.1832 147.122 16.652C147.884 17.1207 148.476 17.7789 148.898 18.6264C149.319 19.474 149.53 20.4635 149.53 21.5952C149.53 22.7221 149.319 23.7069 148.898 24.5497C148.476 25.3925 147.884 26.0483 147.122 26.517C146.36 26.9858 145.467 27.2202 144.445 27.2202ZM144.452 25.4375C145.115 25.4375 145.664 25.2623 146.099 24.9119C146.535 24.5616 146.857 24.0952 147.065 23.5128C147.278 22.9304 147.385 22.2888 147.385 21.5881C147.385 20.892 147.278 20.2528 147.065 19.6705C146.857 19.0833 146.535 18.6122 146.099 18.2571C145.664 17.902 145.115 17.7244 144.452 17.7244C143.784 17.7244 143.23 17.902 142.79 18.2571C142.354 18.6122 142.03 19.0833 141.817 19.6705C141.608 20.2528 141.504 20.892 141.504 21.5881C141.504 22.2888 141.608 22.9304 141.817 23.5128C142.03 24.0952 142.354 24.5616 142.79 24.9119C143.23 25.2623 143.784 25.4375 144.452 25.4375ZM151.9 27V16.0909H153.953V17.8239H154.066C154.265 17.2367 154.616 16.7751 155.118 16.4389C155.624 16.098 156.197 15.9276 156.836 15.9276C156.969 15.9276 157.125 15.9323 157.305 15.9418C157.49 15.9512 157.634 15.9631 157.738 15.9773V18.0085C157.653 17.9848 157.502 17.9588 157.284 17.9304C157.066 17.8973 156.848 17.8807 156.63 17.8807C156.128 17.8807 155.681 17.9872 155.288 18.2003C154.9 18.4086 154.592 18.6998 154.365 19.0739C154.137 19.4432 154.024 19.8646 154.024 20.3381V27H151.9ZM162.653 27.2415C161.962 27.2415 161.337 27.1136 160.778 26.858C160.219 26.5975 159.777 26.2211 159.45 25.7287C159.128 25.2363 158.967 24.6326 158.967 23.9176C158.967 23.3021 159.085 22.7955 159.322 22.3977C159.559 22 159.878 21.6851 160.281 21.4531C160.683 21.2211 161.133 21.0459 161.63 20.9276C162.127 20.8092 162.634 20.7192 163.15 20.6577C163.804 20.5819 164.334 20.5204 164.741 20.473C165.148 20.4209 165.444 20.3381 165.629 20.2244C165.814 20.1108 165.906 19.9261 165.906 19.6705V19.6207C165.906 19.0005 165.731 18.5199 165.38 18.179C165.035 17.8381 164.519 17.6676 163.832 17.6676C163.117 17.6676 162.554 17.8262 162.142 18.1435C161.734 18.456 161.453 18.804 161.297 19.1875L159.301 18.733C159.538 18.0701 159.883 17.535 160.338 17.1278C160.797 16.7159 161.325 16.4176 161.922 16.233C162.518 16.0436 163.145 15.9489 163.804 15.9489C164.239 15.9489 164.701 16.0009 165.189 16.1051C165.681 16.2045 166.14 16.3892 166.566 16.6591C166.997 16.929 167.35 17.3149 167.625 17.8168C167.899 18.3139 168.037 18.9602 168.037 19.7557V27H165.963V25.5085H165.877C165.74 25.7831 165.534 26.053 165.26 26.3182C164.985 26.5833 164.632 26.8035 164.201 26.9787C163.77 27.1539 163.254 27.2415 162.653 27.2415ZM163.115 25.5369C163.702 25.5369 164.204 25.4209 164.62 25.1889C165.042 24.9569 165.361 24.6539 165.579 24.2798C165.802 23.901 165.913 23.4962 165.913 23.0653V21.6591C165.837 21.7348 165.69 21.8059 165.473 21.8722C165.26 21.9337 165.016 21.9882 164.741 22.0355C164.467 22.0781 164.199 22.1184 163.939 22.1562C163.678 22.1894 163.46 22.2178 163.285 22.2415C162.873 22.2936 162.497 22.3812 162.156 22.5043C161.82 22.6274 161.55 22.8049 161.346 23.0369C161.147 23.2642 161.048 23.5672 161.048 23.946C161.048 24.4716 161.242 24.8693 161.63 25.1392C162.019 25.4044 162.513 25.5369 163.115 25.5369ZM179.04 18.7543L177.115 19.0952C177.035 18.849 176.907 18.6146 176.732 18.392C176.561 18.1695 176.329 17.9872 176.036 17.8452C175.742 17.7031 175.375 17.6321 174.935 17.6321C174.333 17.6321 173.831 17.767 173.429 18.0369C173.027 18.3021 172.825 18.6454 172.825 19.0668C172.825 19.4313 172.96 19.7249 173.23 19.9474C173.5 20.17 173.936 20.3523 174.537 20.4943L176.27 20.892C177.274 21.1241 178.022 21.4815 178.514 21.9645C179.007 22.4474 179.253 23.0748 179.253 23.8466C179.253 24.5 179.063 25.0824 178.685 25.5938C178.311 26.1004 177.787 26.4981 177.115 26.7869C176.447 27.0758 175.673 27.2202 174.793 27.2202C173.571 27.2202 172.574 26.9598 171.803 26.4389C171.031 25.9134 170.557 25.1676 170.382 24.2017L172.435 23.8892C172.563 24.4242 172.825 24.8291 173.223 25.1037C173.621 25.3736 174.139 25.5085 174.778 25.5085C175.474 25.5085 176.031 25.3641 176.447 25.0753C176.864 24.7817 177.072 24.4242 177.072 24.0028C177.072 23.6619 176.945 23.3755 176.689 23.1435C176.438 22.9115 176.052 22.7363 175.531 22.6179L173.685 22.2131C172.667 21.9811 171.914 21.6117 171.426 21.1051C170.943 20.5985 170.702 19.9569 170.702 19.1804C170.702 18.5365 170.882 17.973 171.241 17.4901C171.601 17.0071 172.098 16.6307 172.733 16.3608C173.367 16.0862 174.094 15.9489 174.913 15.9489C176.092 15.9489 177.02 16.2045 177.697 16.7159C178.375 17.2225 178.822 17.902 179.04 18.7543ZM181.588 27V16.0909H183.711V27H181.588ZM182.66 14.4077C182.291 14.4077 181.974 14.2846 181.708 14.0384C181.448 13.7874 181.318 13.4891 181.318 13.1435C181.318 12.7931 181.448 12.4948 181.708 12.2486C181.974 11.9976 182.291 11.8722 182.66 11.8722C183.029 11.8722 183.344 11.9976 183.605 12.2486C183.87 12.4948 184.002 12.7931 184.002 13.1435C184.002 13.4891 183.87 13.7874 183.605 14.0384C183.344 14.2846 183.029 14.4077 182.66 14.4077Z" fill="#121926"/>
</svg>
