<svg width="144" height="40" viewBox="0 0 144 40" fill="none" xmlns="http://www.w3.org/2000/svg">
<path d="M10.4308 29.4769C8.54359 29.4769 6.88205 29.1077 5.44616 28.3692C4.03077 27.6308 2.93334 26.6257 2.15385 25.3538C1.37436 24.0615 0.984619 22.5949 0.984619 20.9538C0.984619 19.2923 1.36411 17.8257 2.12308 16.5538C2.90257 15.2615 3.95897 14.2564 5.29231 13.5385C6.62565 12.8 8.13334 12.4308 9.81539 12.4308C11.4359 12.4308 12.8923 12.7795 14.1846 13.4769C15.4974 14.1538 16.5334 15.1385 17.2923 16.4308C18.0512 17.7026 18.4308 19.2308 18.4308 21.0154C18.4308 21.2 18.4205 21.4154 18.4 21.6615C18.3795 21.8872 18.3589 22.1026 18.3385 22.3077H4.89231V19.5077H15.8154L13.9692 20.3385C13.9692 19.4769 13.7949 18.7282 13.4462 18.0923C13.0974 17.4565 12.6154 16.9642 12 16.6154C11.3846 16.2462 10.6667 16.0615 9.84616 16.0615C9.02565 16.0615 8.29743 16.2462 7.66154 16.6154C7.04616 16.9642 6.56411 17.4666 6.21539 18.1231C5.86667 18.7589 5.69231 19.518 5.69231 20.4V21.1385C5.69231 22.0411 5.88719 22.8411 6.27693 23.5385C6.68719 24.2154 7.25128 24.7385 7.96923 25.1077C8.7077 25.4565 9.56923 25.6308 10.5539 25.6308C11.4359 25.6308 12.2051 25.4974 12.8615 25.2308C13.5385 24.9641 14.1539 24.5641 14.7077 24.0308L17.2615 26.8C16.5026 27.6615 15.5488 28.3281 14.4 28.8C13.2513 29.2512 11.9282 29.4769 10.4308 29.4769ZM21.6265 29.2308V12.6769H26.2111V17.3538L25.5649 16C26.0572 14.8308 26.8469 13.9487 27.9342 13.3538C29.0214 12.7385 30.3445 12.4308 31.9034 12.4308V16.8615C31.6983 16.8411 31.5137 16.8308 31.3495 16.8308C31.1854 16.8103 31.0111 16.8 30.8265 16.8C29.5137 16.8 28.4469 17.1795 27.6265 17.9385C26.8265 18.6769 26.4265 19.8358 26.4265 21.4154V29.2308H21.6265ZM88.5089 12.4308C89.8217 12.4308 90.9909 12.6974 92.0166 13.2308C93.0628 13.7436 93.8832 14.5436 94.4782 15.6308C95.0729 16.6974 95.3705 18.0718 95.3705 19.7538V29.2308H90.5705V20.4923C90.5705 19.1589 90.2729 18.1743 89.6782 17.5385C89.1037 16.9026 88.2832 16.5846 87.2166 16.5846C86.4575 16.5846 85.7705 16.7488 85.1551 17.0769C84.5602 17.3846 84.0883 17.8666 83.7397 18.5231C83.4114 19.1795 83.2474 20.0205 83.2474 21.0462V29.2308H78.4474V12.6769H83.032V17.2615L82.1705 15.8769C82.7652 14.7692 83.6166 13.9179 84.7243 13.3231C85.832 12.7282 87.0935 12.4308 88.5089 12.4308ZM99.7214 29.2308V12.6769H104.521V29.2308H99.7214ZM102.121 10.3692C101.239 10.3692 100.521 10.1128 99.9675 9.6C99.4137 9.08718 99.1368 8.45127 99.1368 7.6923C99.1368 6.93333 99.4137 6.29743 99.9675 5.78461C100.521 5.2718 101.239 5.01538 102.121 5.01538C103.003 5.01538 103.721 5.26153 104.275 5.75384C104.829 6.22564 105.106 6.84103 105.106 7.6C105.106 8.4 104.829 9.06666 104.275 9.6C103.742 10.1128 103.024 10.3692 102.121 10.3692ZM107.838 29.2308V26.3385L117.622 14.7692L118.453 16.3692H108.053V12.6769H122.33V15.5692L112.545 27.1385L111.684 25.5385H122.607V29.2308H107.838ZM133.688 29.4769C131.801 29.4769 130.139 29.1077 128.703 28.3692C127.288 27.6308 126.191 26.6257 125.411 25.3538C124.632 24.0615 124.242 22.5949 124.242 20.9538C124.242 19.2923 124.621 17.8257 125.38 16.5538C126.16 15.2615 127.216 14.2564 128.55 13.5385C129.883 12.8 131.391 12.4308 133.073 12.4308C134.693 12.4308 136.15 12.7795 137.442 13.4769C138.755 14.1538 139.791 15.1385 140.55 16.4308C141.308 17.7026 141.688 19.2308 141.688 21.0154C141.688 21.2 141.678 21.4154 141.657 21.6615C141.637 21.8872 141.616 22.1026 141.596 22.3077H128.15V19.5077H139.073L137.226 20.3385C137.226 19.4769 137.052 18.7282 136.703 18.0923C136.355 17.4565 135.873 16.9642 135.257 16.6154C134.642 16.2462 133.924 16.0615 133.103 16.0615C132.283 16.0615 131.555 16.2462 130.919 16.6154C130.303 16.9642 129.821 17.4666 129.473 18.1231C129.124 18.7589 128.95 19.518 128.95 20.4V21.1385C128.95 22.0411 129.144 22.8411 129.534 23.5385C129.944 24.2154 130.508 24.7385 131.226 25.1077C131.965 25.4565 132.826 25.6308 133.811 25.6308C134.693 25.6308 135.462 25.4974 136.119 25.2308C136.796 24.9641 137.411 24.5641 137.965 24.0308L140.519 26.8C139.76 27.6615 138.806 28.3281 137.657 28.8C136.508 29.2512 135.185 29.4769 133.688 29.4769Z" fill="#121926"/>
<path d="M40.6728 17.1953C40.0314 14.802 41.4517 12.342 43.8451 11.7007L53.0633 9.23071C53.7045 11.6241 52.2842 14.0841 49.8908 14.7254L40.6728 17.1953Z" fill="#DC9E05"/>
<path d="M55.2834 20.4926C55.2834 25.5317 51.1983 29.6166 46.1594 29.6166C41.1203 29.6166 37.0354 25.5317 37.0354 20.4926C37.0354 15.4537 41.1203 11.3687 46.1594 11.3687C51.1983 11.3687 55.2834 15.4537 55.2834 20.4926ZM41.5322 20.4926C41.5322 23.0481 43.6039 25.1198 46.1594 25.1198C48.7148 25.1198 50.7865 23.0481 50.7865 20.4926C50.7865 17.9372 48.7148 15.8655 46.1594 15.8655C43.6039 15.8655 41.5322 17.9372 41.5322 20.4926Z" fill="#FBBA18"/>
<path d="M75.1711 20.4926C75.1711 25.5317 71.086 29.6166 66.0471 29.6166C61.008 29.6166 56.9231 25.5317 56.9231 20.4926C56.9231 15.4537 61.008 11.3687 66.0471 11.3687C71.086 11.3687 75.1711 15.4537 75.1711 20.4926ZM61.4199 20.4926C61.4199 23.0481 63.4916 25.1198 66.0471 25.1198C68.6026 25.1198 70.6742 23.0481 70.6742 20.4926C70.6742 17.9372 68.6026 15.8655 66.0471 15.8655C63.4916 15.8655 61.4199 17.9372 61.4199 20.4926Z" fill="#FBBA18"/>
<path d="M37.7207 38.6037C37.1037 36.3015 38.4699 33.9352 40.772 33.3183L54.5871 29.6166C55.204 31.9187 53.8377 34.285 51.5357 34.9018L37.7207 38.6037Z" fill="#FBBA18"/>
</svg>
