<svg width="863" height="256" viewBox="0 0 863 256" fill="none" xmlns="http://www.w3.org/2000/svg">
<path d="M49.12 3.81818V62H38.495L13.1825 25.3807H12.7564V62H0.455256V3.81818H11.2507L36.3643 40.4091H36.8757V3.81818H49.12ZM59.0561 62V18.3636H71.1584V62H59.0561ZM65.1357 12.7386C63.3364 12.7386 61.7929 12.142 60.505 10.9489C59.236 9.73674 58.6016 8.28788 58.6016 6.60227C58.6016 4.9356 59.236 3.50568 60.505 2.3125C61.7929 1.10038 63.3364 0.494315 65.1357 0.494315C66.9349 0.494315 68.469 1.10038 69.7379 2.3125C71.0258 3.50568 71.6697 4.9356 71.6697 6.60227C71.6697 8.28788 71.0258 9.73674 69.7379 10.9489C68.469 12.142 66.9349 12.7386 65.1357 12.7386ZM91.8189 49.4432L91.8473 34.9261H93.6087L107.586 18.3636H121.478L102.7 40.2955H99.8303L91.8189 49.4432ZM80.853 62V3.81818H92.9553V62H80.853ZM108.126 62L95.2848 42.9943L103.353 34.4432L122.302 62H108.126ZM127.415 62V18.3636H138.95V26.0625H139.461C140.37 23.5057 141.885 21.4886 144.006 20.0114C146.128 18.5341 148.665 17.7955 151.62 17.7955C154.612 17.7955 157.16 18.5436 159.262 20.0398C161.364 21.517 162.766 23.5246 163.467 26.0625H163.921C164.811 23.5625 166.421 21.5644 168.751 20.0682C171.099 18.553 173.874 17.7955 177.075 17.7955C181.147 17.7955 184.451 19.0928 186.989 21.6875C189.546 24.2633 190.825 27.9186 190.825 32.6534V62H178.751V35.0398C178.751 32.6155 178.107 30.7973 176.819 29.5852C175.531 28.3731 173.921 27.767 171.989 27.767C169.792 27.767 168.078 28.4678 166.847 29.8693C165.616 31.2519 165.001 33.0795 165.001 35.3523V62H153.268V34.7841C153.268 32.6439 152.652 30.9394 151.421 29.6705C150.209 28.4015 148.609 27.767 146.62 27.767C145.275 27.767 144.063 28.108 142.984 28.7898C141.923 29.4527 141.08 30.3902 140.455 31.6023C139.83 32.7955 139.518 34.197 139.518 35.8068V62H127.415ZM212.827 62.8239C210.043 62.8239 207.562 62.3409 205.384 61.375C203.206 60.3902 201.483 58.9413 200.214 57.0284C198.964 55.0966 198.339 52.6913 198.339 49.8125C198.339 47.3883 198.784 45.3523 199.674 43.7045C200.564 42.0568 201.776 40.7311 203.31 39.7273C204.844 38.7235 206.587 37.9659 208.538 37.4545C210.507 36.9432 212.572 36.5833 214.731 36.375C217.269 36.1098 219.314 35.8636 220.867 35.6364C222.42 35.3902 223.547 35.0303 224.248 34.5568C224.949 34.0833 225.299 33.3826 225.299 32.4545V32.2841C225.299 30.4848 224.731 29.0928 223.594 28.108C222.477 27.1231 220.886 26.6307 218.822 26.6307C216.644 26.6307 214.911 27.1136 213.623 28.0795C212.335 29.0265 211.483 30.2197 211.066 31.6591L199.873 30.75C200.441 28.0985 201.558 25.8068 203.225 23.875C204.892 21.9242 207.041 20.428 209.674 19.3864C212.326 18.3258 215.394 17.7955 218.879 17.7955C221.303 17.7955 223.623 18.0795 225.839 18.6477C228.074 19.2159 230.053 20.0966 231.776 21.2898C233.519 22.483 234.892 24.017 235.896 25.892C236.899 27.7481 237.401 29.9735 237.401 32.5682V62H225.924V55.9489H225.583C224.882 57.3125 223.945 58.5152 222.771 59.5568C221.596 60.5795 220.185 61.3845 218.538 61.9716C216.89 62.5398 214.987 62.8239 212.827 62.8239ZM216.293 54.4716C218.074 54.4716 219.646 54.1212 221.009 53.4205C222.373 52.7008 223.443 51.7348 224.219 50.5227C224.996 49.3106 225.384 47.9375 225.384 46.4034V41.7727C225.005 42.0189 224.485 42.2462 223.822 42.4545C223.178 42.6439 222.449 42.8239 221.634 42.9943C220.82 43.1458 220.005 43.2879 219.191 43.4205C218.377 43.5341 217.638 43.6383 216.975 43.733C215.555 43.9413 214.314 44.2727 213.254 44.7273C212.193 45.1818 211.369 45.7973 210.782 46.5739C210.195 47.3314 209.901 48.2784 209.901 49.4148C209.901 51.0625 210.498 52.322 211.691 53.1932C212.903 54.0455 214.437 54.4716 216.293 54.4716ZM270.001 18.3636V27.4545H243.722V18.3636H270.001ZM249.688 7.90909H261.79V48.5909C261.79 49.7083 261.961 50.5795 262.302 51.2045C262.643 51.8106 263.116 52.2367 263.722 52.483C264.347 52.7292 265.067 52.8523 265.881 52.8523C266.45 52.8523 267.018 52.8049 267.586 52.7102C268.154 52.5966 268.59 52.5114 268.893 52.4545L270.796 61.4602C270.19 61.6496 269.338 61.8674 268.239 62.1136C267.141 62.3788 265.806 62.5398 264.234 62.5966C261.317 62.7102 258.76 62.322 256.563 61.4318C254.385 60.5417 252.69 59.1591 251.478 57.2841C250.266 55.4091 249.669 53.0417 249.688 50.1818V7.90909ZM277.884 62V18.3636H289.987V62H277.884ZM283.964 12.7386C282.165 12.7386 280.621 12.142 279.333 10.9489C278.064 9.73674 277.43 8.28788 277.43 6.60227C277.43 4.9356 278.064 3.50568 279.333 2.3125C280.621 1.10038 282.165 0.494315 283.964 0.494315C285.763 0.494315 287.297 1.10038 288.566 2.3125C289.854 3.50568 290.498 4.9356 290.498 6.60227C290.498 8.28788 289.854 9.73674 288.566 10.9489C287.297 12.142 285.763 12.7386 283.964 12.7386ZM318.424 62V3.81818H341.719C346 3.81818 349.57 4.45265 352.43 5.72159C355.29 6.99053 357.439 8.75189 358.879 11.0057C360.318 13.2405 361.038 15.8163 361.038 18.733C361.038 21.0057 360.583 23.0038 359.674 24.7273C358.765 26.4318 357.515 27.8333 355.924 28.9318C354.352 30.0114 352.553 30.7784 350.526 31.233V31.8011C352.742 31.8958 354.816 32.5208 356.748 33.6761C358.699 34.8314 360.28 36.4508 361.492 38.5341C362.704 40.5985 363.31 43.0606 363.31 45.9205C363.31 49.0076 362.543 51.7633 361.009 54.1875C359.494 56.5928 357.25 58.4962 354.276 59.8977C351.303 61.2992 347.638 62 343.282 62H318.424ZM330.725 51.9432H340.754C344.182 51.9432 346.682 51.2898 348.254 49.983C349.826 48.6572 350.612 46.8958 350.612 44.6989C350.612 43.089 350.223 41.6686 349.447 40.4375C348.67 39.2064 347.562 38.2405 346.123 37.5398C344.702 36.839 343.007 36.4886 341.038 36.4886H330.725V51.9432ZM330.725 28.1648H339.844C341.53 28.1648 343.026 27.8712 344.333 27.2841C345.659 26.678 346.701 25.8258 347.458 24.7273C348.235 23.6288 348.623 22.3125 348.623 20.7784C348.623 18.6761 347.875 16.9811 346.379 15.6932C344.901 14.4053 342.799 13.7614 340.072 13.7614H330.725V28.1648ZM390.974 62.8523C386.485 62.8523 382.621 61.9432 379.383 60.125C376.163 58.2879 373.682 55.6932 371.94 52.3409C370.197 48.9697 369.326 44.983 369.326 40.3807C369.326 35.892 370.197 31.9527 371.94 28.5625C373.682 25.1723 376.135 22.5303 379.298 20.6364C382.479 18.7424 386.21 17.7955 390.491 17.7955C393.37 17.7955 396.049 18.2595 398.531 19.1875C401.031 20.0966 403.209 21.4697 405.065 23.3068C406.94 25.1439 408.398 27.4545 409.44 30.2386C410.481 33.0038 411.002 36.2424 411.002 39.9545V43.2784H374.156V35.7784H399.61C399.61 34.036 399.231 32.4924 398.474 31.1477C397.716 29.803 396.665 28.7519 395.32 27.9943C393.995 27.2178 392.451 26.8295 390.69 26.8295C388.853 26.8295 387.224 27.2557 385.803 28.108C384.402 28.9413 383.303 30.0682 382.508 31.4886C381.712 32.8902 381.305 34.4527 381.286 36.1761V43.3068C381.286 45.4659 381.684 47.3314 382.479 48.9034C383.294 50.4754 384.44 51.6875 385.917 52.5398C387.394 53.392 389.146 53.8182 391.173 53.8182C392.517 53.8182 393.748 53.6288 394.866 53.25C395.983 52.8712 396.94 52.303 397.735 51.5455C398.531 50.7879 399.137 49.8598 399.553 48.7614L410.746 49.5C410.178 52.1894 409.013 54.5379 407.252 56.5455C405.51 58.5341 403.256 60.0871 400.491 61.2045C397.745 62.303 394.572 62.8523 390.974 62.8523ZM418.9 62V18.3636H430.633V25.9773H431.087C431.883 23.2689 433.218 21.2235 435.093 19.8409C436.968 18.4394 439.127 17.7386 441.57 17.7386C442.176 17.7386 442.83 17.7765 443.531 17.8523C444.231 17.928 444.847 18.0322 445.377 18.1648V28.9034C444.809 28.733 444.023 28.5814 443.019 28.4489C442.015 28.3163 441.097 28.25 440.263 28.25C438.483 28.25 436.892 28.6383 435.491 29.4148C434.108 30.1723 433.01 31.233 432.195 32.5966C431.4 33.9602 431.002 35.5322 431.002 37.3125V62H418.9ZM451.862 62V3.81818H463.964V25.6932H464.333C464.863 24.5189 465.63 23.3258 466.634 22.1136C467.657 20.8826 468.983 19.8598 470.612 19.0455C472.259 18.2121 474.305 17.7955 476.748 17.7955C479.93 17.7955 482.865 18.6288 485.555 20.2955C488.244 21.9432 490.394 24.4337 492.004 27.767C493.613 31.0814 494.418 35.2386 494.418 40.2386C494.418 45.1061 493.632 49.2159 492.06 52.5682C490.507 55.9015 488.386 58.4299 485.697 60.1534C483.026 61.858 480.034 62.7102 476.719 62.7102C474.371 62.7102 472.373 62.322 470.725 61.5455C469.096 60.7689 467.761 59.7936 466.719 58.6193C465.678 57.4261 464.882 56.2235 464.333 55.0114H463.793V62H451.862ZM463.708 40.1818C463.708 42.7765 464.068 45.0398 464.788 46.9716C465.507 48.9034 466.549 50.4091 467.913 51.4886C469.276 52.5492 470.933 53.0795 472.884 53.0795C474.854 53.0795 476.521 52.5398 477.884 51.4602C479.248 50.3617 480.28 48.8466 480.981 46.9148C481.701 44.964 482.06 42.7197 482.06 40.1818C482.06 37.6629 481.71 35.447 481.009 33.5341C480.308 31.6212 479.276 30.125 477.913 29.0455C476.549 27.9659 474.873 27.4261 472.884 27.4261C470.915 27.4261 469.248 27.947 467.884 28.9886C466.54 30.0303 465.507 31.5076 464.788 33.4205C464.068 35.3333 463.708 37.5871 463.708 40.1818ZM514.937 62.8239C512.153 62.8239 509.672 62.3409 507.494 61.375C505.316 60.3902 503.592 58.9413 502.323 57.0284C501.073 55.0966 500.448 52.6913 500.448 49.8125C500.448 47.3883 500.893 45.3523 501.783 43.7045C502.674 42.0568 503.886 40.7311 505.42 39.7273C506.954 38.7235 508.696 37.9659 510.647 37.4545C512.617 36.9432 514.681 36.5833 516.84 36.375C519.378 36.1098 521.424 35.8636 522.977 35.6364C524.53 35.3902 525.656 35.0303 526.357 34.5568C527.058 34.0833 527.408 33.3826 527.408 32.4545V32.2841C527.408 30.4848 526.84 29.0928 525.704 28.108C524.586 27.1231 522.996 26.6307 520.931 26.6307C518.753 26.6307 517.02 27.1136 515.732 28.0795C514.444 29.0265 513.592 30.2197 513.175 31.6591L501.982 30.75C502.55 28.0985 503.668 25.8068 505.335 23.875C507.001 21.9242 509.151 20.428 511.783 19.3864C514.435 18.3258 517.503 17.7955 520.988 17.7955C523.412 17.7955 525.732 18.0795 527.948 18.6477C530.183 19.2159 532.162 20.0966 533.886 21.2898C535.628 22.483 537.001 24.017 538.005 25.892C539.009 27.7481 539.511 29.9735 539.511 32.5682V62H528.033V55.9489H527.692C526.992 57.3125 526.054 58.5152 524.88 59.5568C523.706 60.5795 522.295 61.3845 520.647 61.9716C518.999 62.5398 517.096 62.8239 514.937 62.8239ZM518.403 54.4716C520.183 54.4716 521.755 54.1212 523.119 53.4205C524.482 52.7008 525.552 51.7348 526.329 50.5227C527.105 49.3106 527.494 47.9375 527.494 46.4034V41.7727C527.115 42.0189 526.594 42.2462 525.931 42.4545C525.287 42.6439 524.558 42.8239 523.744 42.9943C522.929 43.1458 522.115 43.2879 521.3 43.4205C520.486 43.5341 519.747 43.6383 519.085 43.733C517.664 43.9413 516.424 44.2727 515.363 44.7273C514.302 45.1818 513.478 45.7973 512.891 46.5739C512.304 47.3314 512.011 48.2784 512.011 49.4148C512.011 51.0625 512.607 52.322 513.8 53.1932C515.013 54.0455 516.547 54.4716 518.403 54.4716ZM568.559 79.2727C564.638 79.2727 561.277 78.733 558.474 77.6534C555.69 76.5928 553.474 75.1439 551.826 73.3068C550.178 71.4697 549.108 69.4053 548.616 67.1136L559.809 65.608C560.15 66.4792 560.69 67.2936 561.428 68.0511C562.167 68.8087 563.142 69.4148 564.354 69.8693C565.585 70.3428 567.082 70.5795 568.843 70.5795C571.476 70.5795 573.644 69.9356 575.349 68.6477C577.072 67.3788 577.934 65.2481 577.934 62.2557V54.2727H577.423C576.892 55.4848 576.097 56.6307 575.036 57.7102C573.976 58.7898 572.612 59.6705 570.945 60.3523C569.279 61.0341 567.29 61.375 564.979 61.375C561.703 61.375 558.72 60.6174 556.031 59.1023C553.36 57.5682 551.229 55.2292 549.638 52.0852C548.067 48.9223 547.281 44.9261 547.281 40.0966C547.281 35.1534 548.085 31.0246 549.695 27.7102C551.305 24.3958 553.445 21.9148 556.116 20.267C558.805 18.6193 561.75 17.7955 564.951 17.7955C567.394 17.7955 569.44 18.2121 571.087 19.0455C572.735 19.8598 574.061 20.8826 575.065 22.1136C576.087 23.3258 576.873 24.5189 577.423 25.6932H577.877V18.3636H589.894V62.4261C589.894 66.1383 588.985 69.2443 587.167 71.7443C585.349 74.2443 582.83 76.1193 579.61 77.3693C576.409 78.6383 572.726 79.2727 568.559 79.2727ZM568.815 52.2841C570.765 52.2841 572.413 51.8011 573.758 50.8352C575.121 49.8504 576.163 48.4489 576.883 46.6307C577.621 44.7936 577.991 42.5966 577.991 40.0398C577.991 37.483 577.631 35.267 576.911 33.392C576.192 31.4981 575.15 30.0303 573.786 28.9886C572.423 27.947 570.765 27.4261 568.815 27.4261C566.826 27.4261 565.15 27.9659 563.786 29.0455C562.423 30.1061 561.39 31.5833 560.69 33.4773C559.989 35.3712 559.638 37.5587 559.638 40.0398C559.638 42.5587 559.989 44.7367 560.69 46.5739C561.409 48.392 562.442 49.803 563.786 50.8068C565.15 51.7917 566.826 52.2841 568.815 52.2841ZM611.968 62.8239C609.184 62.8239 606.703 62.3409 604.525 61.375C602.347 60.3902 600.623 58.9413 599.354 57.0284C598.104 55.0966 597.479 52.6913 597.479 49.8125C597.479 47.3883 597.924 45.3523 598.815 43.7045C599.705 42.0568 600.917 40.7311 602.451 39.7273C603.985 38.7235 605.728 37.9659 607.678 37.4545C609.648 36.9432 611.712 36.5833 613.871 36.375C616.409 36.1098 618.455 35.8636 620.008 35.6364C621.561 35.3902 622.688 35.0303 623.388 34.5568C624.089 34.0833 624.44 33.3826 624.44 32.4545V32.2841C624.44 30.4848 623.871 29.0928 622.735 28.108C621.618 27.1231 620.027 26.6307 617.962 26.6307C615.784 26.6307 614.051 27.1136 612.763 28.0795C611.476 29.0265 610.623 30.2197 610.207 31.6591L599.013 30.75C599.582 28.0985 600.699 25.8068 602.366 23.875C604.032 21.9242 606.182 20.428 608.815 19.3864C611.466 18.3258 614.534 17.7955 618.019 17.7955C620.443 17.7955 622.763 18.0795 624.979 18.6477C627.214 19.2159 629.193 20.0966 630.917 21.2898C632.659 22.483 634.032 24.017 635.036 25.892C636.04 27.7481 636.542 29.9735 636.542 32.5682V62H625.065V55.9489H624.724C624.023 57.3125 623.085 58.5152 621.911 59.5568C620.737 60.5795 619.326 61.3845 617.678 61.9716C616.031 62.5398 614.127 62.8239 611.968 62.8239ZM615.434 54.4716C617.214 54.4716 618.786 54.1212 620.15 53.4205C621.513 52.7008 622.584 51.7348 623.36 50.5227C624.137 49.3106 624.525 47.9375 624.525 46.4034V41.7727C624.146 42.0189 623.625 42.2462 622.962 42.4545C622.318 42.6439 621.589 42.8239 620.775 42.9943C619.96 43.1458 619.146 43.2879 618.332 43.4205C617.517 43.5341 616.779 43.6383 616.116 43.733C614.695 43.9413 613.455 44.2727 612.394 44.7273C611.334 45.1818 610.51 45.7973 609.923 46.5739C609.335 47.3314 609.042 48.2784 609.042 49.4148C609.042 51.0625 609.638 52.322 610.832 53.1932C612.044 54.0455 613.578 54.4716 615.434 54.4716ZM645.931 62V18.3636H658.033V62H645.931ZM652.011 12.7386C650.211 12.7386 648.668 12.142 647.38 10.9489C646.111 9.73674 645.477 8.28788 645.477 6.60227C645.477 4.9356 646.111 3.50568 647.38 2.3125C648.668 1.10038 650.211 0.494315 652.011 0.494315C653.81 0.494315 655.344 1.10038 656.613 2.3125C657.901 3.50568 658.545 4.9356 658.545 6.60227C658.545 8.28788 657.901 9.73674 656.613 10.9489C655.344 12.142 653.81 12.7386 652.011 12.7386ZM686.471 62V3.81818H724.994V13.9602H698.772V27.8239H722.437V37.9659H698.772V62H686.471ZM733.04 62V18.3636H745.143V62H733.04ZM739.12 12.7386C737.321 12.7386 735.777 12.142 734.489 10.9489C733.22 9.73674 732.586 8.28788 732.586 6.60227C732.586 4.9356 733.22 3.50568 734.489 2.3125C735.777 1.10038 737.321 0.494315 739.12 0.494315C740.919 0.494315 742.453 1.10038 743.722 2.3125C745.01 3.50568 745.654 4.9356 745.654 6.60227C745.654 8.28788 745.01 9.73674 743.722 10.9489C742.453 12.142 740.919 12.7386 739.12 12.7386ZM778.048 18.3636V27.4545H751.769V18.3636H778.048ZM757.735 7.90909H769.837V48.5909C769.837 49.7083 770.008 50.5795 770.349 51.2045C770.69 51.8106 771.163 52.2367 771.769 52.483C772.394 52.7292 773.114 52.8523 773.928 52.8523C774.496 52.8523 775.065 52.8049 775.633 52.7102C776.201 52.5966 776.637 52.5114 776.94 52.4545L778.843 61.4602C778.237 61.6496 777.385 61.8674 776.286 62.1136C775.188 62.3788 773.853 62.5398 772.281 62.5966C769.364 62.7102 766.807 62.322 764.61 61.4318C762.432 60.5417 760.737 59.1591 759.525 57.2841C758.313 55.4091 757.716 53.0417 757.735 50.1818V7.90909ZM813.914 43.4205V18.3636H826.016V62H814.397V54.0739H813.942C812.958 56.6307 811.319 58.6856 809.028 60.2386C806.755 61.7917 803.98 62.5682 800.704 62.5682C797.787 62.5682 795.221 61.9053 793.005 60.5795C790.789 59.2538 789.056 57.3693 787.806 54.9261C786.575 52.483 785.95 49.5568 785.931 46.1477V18.3636H798.033V43.9886C798.052 46.5644 798.744 48.6004 800.107 50.0966C801.471 51.5928 803.299 52.3409 805.59 52.3409C807.049 52.3409 808.412 52.0095 809.681 51.3466C810.95 50.6648 811.973 49.661 812.749 48.3352C813.545 47.0095 813.933 45.3712 813.914 43.4205ZM835.697 62V18.3636H847.43V25.9773H847.884C848.68 23.2689 850.015 21.2235 851.89 19.8409C853.765 18.4394 855.924 17.7386 858.367 17.7386C858.973 17.7386 859.627 17.7765 860.327 17.8523C861.028 17.928 861.644 18.0322 862.174 18.1648V28.9034C861.606 28.733 860.82 28.5814 859.816 28.4489C858.812 28.3163 857.894 28.25 857.06 28.25C855.28 28.25 853.689 28.6383 852.288 29.4148C850.905 30.1723 849.807 31.233 848.992 32.5966C848.197 33.9602 847.799 35.5322 847.799 37.3125V62H835.697ZM37.8381 150V91.8182H50.1392V117.472H50.9062L71.8438 91.8182H86.5881L64.9972 117.869L86.8438 150H72.1278L56.1903 126.08L50.1392 133.466V150H37.8381ZM109.28 150.852C104.867 150.852 101.051 149.915 97.831 148.04C94.6302 146.146 92.1586 143.513 90.4162 140.142C88.6738 136.752 87.8026 132.822 87.8026 128.352C87.8026 123.845 88.6738 119.905 90.4162 116.534C92.1586 113.144 94.6302 110.511 97.831 108.636C101.051 106.742 104.867 105.795 109.28 105.795C113.693 105.795 117.5 106.742 120.7 108.636C123.92 110.511 126.401 113.144 128.143 116.534C129.886 119.905 130.757 123.845 130.757 128.352C130.757 132.822 129.886 136.752 128.143 140.142C126.401 143.513 123.92 146.146 120.7 148.04C117.5 149.915 113.693 150.852 109.28 150.852ZM109.337 141.477C111.344 141.477 113.02 140.909 114.365 139.773C115.71 138.617 116.723 137.045 117.405 135.057C118.106 133.068 118.456 130.805 118.456 128.267C118.456 125.729 118.106 123.466 117.405 121.477C116.723 119.489 115.71 117.917 114.365 116.761C113.02 115.606 111.344 115.028 109.337 115.028C107.31 115.028 105.606 115.606 104.223 116.761C102.859 117.917 101.827 119.489 101.126 121.477C100.445 123.466 100.104 125.729 100.104 128.267C100.104 130.805 100.445 133.068 101.126 135.057C101.827 137.045 102.859 138.617 104.223 139.773C105.606 140.909 107.31 141.477 109.337 141.477ZM150.729 91.8182V150H138.626V91.8182H150.729ZM172.866 150.824C170.082 150.824 167.601 150.341 165.423 149.375C163.245 148.39 161.522 146.941 160.253 145.028C159.003 143.097 158.378 140.691 158.378 137.812C158.378 135.388 158.823 133.352 159.713 131.705C160.603 130.057 161.815 128.731 163.349 127.727C164.884 126.723 166.626 125.966 168.577 125.455C170.546 124.943 172.611 124.583 174.77 124.375C177.308 124.11 179.353 123.864 180.906 123.636C182.459 123.39 183.586 123.03 184.287 122.557C184.988 122.083 185.338 121.383 185.338 120.455V120.284C185.338 118.485 184.77 117.093 183.634 116.108C182.516 115.123 180.925 114.631 178.861 114.631C176.683 114.631 174.95 115.114 173.662 116.08C172.374 117.027 171.522 118.22 171.105 119.659L159.912 118.75C160.48 116.098 161.598 113.807 163.264 111.875C164.931 109.924 167.08 108.428 169.713 107.386C172.365 106.326 175.433 105.795 178.918 105.795C181.342 105.795 183.662 106.08 185.878 106.648C188.113 107.216 190.092 108.097 191.815 109.29C193.558 110.483 194.931 112.017 195.935 113.892C196.938 115.748 197.44 117.973 197.44 120.568V150H185.963V143.949H185.622C184.921 145.312 183.984 146.515 182.81 147.557C181.635 148.58 180.224 149.384 178.577 149.972C176.929 150.54 175.026 150.824 172.866 150.824ZM176.332 142.472C178.113 142.472 179.685 142.121 181.048 141.42C182.412 140.701 183.482 139.735 184.259 138.523C185.035 137.311 185.423 135.937 185.423 134.403V129.773C185.045 130.019 184.524 130.246 183.861 130.455C183.217 130.644 182.488 130.824 181.673 130.994C180.859 131.146 180.045 131.288 179.23 131.42C178.416 131.534 177.677 131.638 177.014 131.733C175.594 131.941 174.353 132.273 173.293 132.727C172.232 133.182 171.408 133.797 170.821 134.574C170.234 135.331 169.94 136.278 169.94 137.415C169.94 139.062 170.537 140.322 171.73 141.193C172.942 142.045 174.476 142.472 176.332 142.472ZM207.057 150V91.8182H219.159V113.693H219.528C220.059 112.519 220.826 111.326 221.83 110.114C222.852 108.883 224.178 107.86 225.807 107.045C227.455 106.212 229.5 105.795 231.943 105.795C235.125 105.795 238.061 106.629 240.75 108.295C243.439 109.943 245.589 112.434 247.199 115.767C248.809 119.081 249.614 123.239 249.614 128.239C249.614 133.106 248.828 137.216 247.256 140.568C245.703 143.902 243.581 146.43 240.892 148.153C238.222 149.858 235.229 150.71 231.915 150.71C229.566 150.71 227.568 150.322 225.92 149.545C224.292 148.769 222.956 147.794 221.915 146.619C220.873 145.426 220.078 144.223 219.528 143.011H218.989V150H207.057ZM218.903 128.182C218.903 130.777 219.263 133.04 219.983 134.972C220.703 136.903 221.744 138.409 223.108 139.489C224.472 140.549 226.129 141.08 228.08 141.08C230.049 141.08 231.716 140.54 233.08 139.46C234.443 138.362 235.475 136.847 236.176 134.915C236.896 132.964 237.256 130.72 237.256 128.182C237.256 125.663 236.905 123.447 236.205 121.534C235.504 119.621 234.472 118.125 233.108 117.045C231.744 115.966 230.068 115.426 228.08 115.426C226.11 115.426 224.443 115.947 223.08 116.989C221.735 118.03 220.703 119.508 219.983 121.42C219.263 123.333 218.903 125.587 218.903 128.182ZM277.405 150.852C272.992 150.852 269.176 149.915 265.956 148.04C262.755 146.146 260.284 143.513 258.541 140.142C256.799 136.752 255.928 132.822 255.928 128.352C255.928 123.845 256.799 119.905 258.541 116.534C260.284 113.144 262.755 110.511 265.956 108.636C269.176 106.742 272.992 105.795 277.405 105.795C281.818 105.795 285.625 106.742 288.825 108.636C292.045 110.511 294.526 113.144 296.268 116.534C298.011 119.905 298.882 123.845 298.882 128.352C298.882 132.822 298.011 136.752 296.268 140.142C294.526 143.513 292.045 146.146 288.825 148.04C285.625 149.915 281.818 150.852 277.405 150.852ZM277.462 141.477C279.469 141.477 281.145 140.909 282.49 139.773C283.835 138.617 284.848 137.045 285.53 135.057C286.231 133.068 286.581 130.805 286.581 128.267C286.581 125.729 286.231 123.466 285.53 121.477C284.848 119.489 283.835 117.917 282.49 116.761C281.145 115.606 279.469 115.028 277.462 115.028C275.435 115.028 273.731 115.606 272.348 116.761C270.984 117.917 269.952 119.489 269.251 121.477C268.57 123.466 268.229 125.729 268.229 128.267C268.229 130.805 268.57 133.068 269.251 135.057C269.952 137.045 270.984 138.617 272.348 139.773C273.731 140.909 275.435 141.477 277.462 141.477ZM306.751 150V106.364H318.484V113.977H318.939C319.734 111.269 321.07 109.223 322.945 107.841C324.82 106.439 326.979 105.739 329.422 105.739C330.028 105.739 330.681 105.777 331.382 105.852C332.083 105.928 332.698 106.032 333.229 106.165V116.903C332.661 116.733 331.875 116.581 330.871 116.449C329.867 116.316 328.948 116.25 328.115 116.25C326.335 116.25 324.744 116.638 323.342 117.415C321.96 118.172 320.861 119.233 320.047 120.597C319.251 121.96 318.854 123.532 318.854 125.312V150H306.751ZM350.679 150.824C347.895 150.824 345.414 150.341 343.236 149.375C341.058 148.39 339.334 146.941 338.065 145.028C336.815 143.097 336.19 140.691 336.19 137.812C336.19 135.388 336.635 133.352 337.526 131.705C338.416 130.057 339.628 128.731 341.162 127.727C342.696 126.723 344.438 125.966 346.389 125.455C348.359 124.943 350.423 124.583 352.582 124.375C355.12 124.11 357.166 123.864 358.719 123.636C360.272 123.39 361.399 123.03 362.099 122.557C362.8 122.083 363.151 121.383 363.151 120.455V120.284C363.151 118.485 362.582 117.093 361.446 116.108C360.329 115.123 358.738 114.631 356.673 114.631C354.495 114.631 352.762 115.114 351.474 116.08C350.187 117.027 349.334 118.22 348.918 119.659L337.724 118.75C338.293 116.098 339.41 113.807 341.077 111.875C342.743 109.924 344.893 108.428 347.526 107.386C350.177 106.326 353.245 105.795 356.73 105.795C359.154 105.795 361.474 106.08 363.69 106.648C365.925 107.216 367.904 108.097 369.628 109.29C371.37 110.483 372.743 112.017 373.747 113.892C374.751 115.748 375.253 117.973 375.253 120.568V150H363.776V143.949H363.435C362.734 145.312 361.796 146.515 360.622 147.557C359.448 148.58 358.037 149.384 356.389 149.972C354.741 150.54 352.838 150.824 350.679 150.824ZM354.145 142.472C355.925 142.472 357.497 142.121 358.861 141.42C360.224 140.701 361.295 139.735 362.071 138.523C362.848 137.311 363.236 135.937 363.236 134.403V129.773C362.857 130.019 362.336 130.246 361.673 130.455C361.029 130.644 360.3 130.824 359.486 130.994C358.671 131.146 357.857 131.288 357.043 131.42C356.228 131.534 355.49 131.638 354.827 131.733C353.406 131.941 352.166 132.273 351.105 132.727C350.045 133.182 349.221 133.797 348.634 134.574C348.046 135.331 347.753 136.278 347.753 137.415C347.753 139.062 348.349 140.322 349.543 141.193C350.755 142.045 352.289 142.472 354.145 142.472ZM407.852 106.364V115.455H381.574V106.364H407.852ZM387.54 95.9091H399.642V136.591C399.642 137.708 399.813 138.58 400.153 139.205C400.494 139.811 400.968 140.237 401.574 140.483C402.199 140.729 402.919 140.852 403.733 140.852C404.301 140.852 404.869 140.805 405.438 140.71C406.006 140.597 406.441 140.511 406.744 140.455L408.648 149.46C408.042 149.65 407.189 149.867 406.091 150.114C404.992 150.379 403.657 150.54 402.085 150.597C399.169 150.71 396.612 150.322 394.415 149.432C392.237 148.542 390.542 147.159 389.33 145.284C388.117 143.409 387.521 141.042 387.54 138.182V95.9091ZM415.736 150V106.364H427.838V150H415.736ZM421.815 100.739C420.016 100.739 418.473 100.142 417.185 98.9489C415.916 97.7367 415.281 96.2879 415.281 94.6023C415.281 92.9356 415.916 91.5057 417.185 90.3125C418.473 89.1004 420.016 88.4943 421.815 88.4943C423.615 88.4943 425.149 89.1004 426.418 90.3125C427.705 91.5057 428.349 92.9356 428.349 94.6023C428.349 96.2879 427.705 97.7367 426.418 98.9489C425.149 100.142 423.615 100.739 421.815 100.739ZM460.999 106.364V115.455H434.067V106.364H460.999ZM440.232 150V103.21C440.232 100.047 440.847 97.4242 442.078 95.3409C443.328 93.2576 445.033 91.6951 447.192 90.6534C449.351 89.6117 451.804 89.0909 454.55 89.0909C456.406 89.0909 458.101 89.233 459.635 89.517C461.188 89.8011 462.343 90.0568 463.101 90.2841L460.942 99.375C460.468 99.2235 459.881 99.0814 459.18 98.9489C458.499 98.8163 457.798 98.75 457.078 98.75C455.298 98.75 454.057 99.1667 453.357 100C452.656 100.814 452.305 101.96 452.305 103.438V150H440.232ZM487.135 150V91.8182H510.43C514.711 91.8182 518.281 92.4527 521.141 93.7216C524 94.9905 526.15 96.7519 527.589 99.0057C529.029 101.241 529.749 103.816 529.749 106.733C529.749 109.006 529.294 111.004 528.385 112.727C527.476 114.432 526.226 115.833 524.635 116.932C523.063 118.011 521.264 118.778 519.237 119.233V119.801C521.453 119.896 523.527 120.521 525.459 121.676C527.41 122.831 528.991 124.451 530.203 126.534C531.415 128.598 532.021 131.061 532.021 133.92C532.021 137.008 531.254 139.763 529.72 142.188C528.205 144.593 525.961 146.496 522.987 147.898C520.014 149.299 516.349 150 511.993 150H487.135ZM499.436 139.943H509.464C512.893 139.943 515.393 139.29 516.964 137.983C518.536 136.657 519.322 134.896 519.322 132.699C519.322 131.089 518.934 129.669 518.158 128.438C517.381 127.206 516.273 126.241 514.834 125.54C513.413 124.839 511.718 124.489 509.749 124.489H499.436V139.943ZM499.436 116.165H508.555C510.241 116.165 511.737 115.871 513.044 115.284C514.37 114.678 515.411 113.826 516.169 112.727C516.946 111.629 517.334 110.312 517.334 108.778C517.334 106.676 516.586 104.981 515.089 103.693C513.612 102.405 511.51 101.761 508.783 101.761H499.436V116.165ZM559.685 150.852C555.196 150.852 551.332 149.943 548.094 148.125C544.874 146.288 542.393 143.693 540.651 140.341C538.908 136.97 538.037 132.983 538.037 128.381C538.037 123.892 538.908 119.953 540.651 116.562C542.393 113.172 544.846 110.53 548.009 108.636C551.19 106.742 554.921 105.795 559.202 105.795C562.08 105.795 564.76 106.259 567.241 107.188C569.741 108.097 571.92 109.47 573.776 111.307C575.651 113.144 577.109 115.455 578.151 118.239C579.192 121.004 579.713 124.242 579.713 127.955V131.278H542.866V123.778H568.321C568.321 122.036 567.942 120.492 567.185 119.148C566.427 117.803 565.376 116.752 564.031 115.994C562.705 115.218 561.162 114.83 559.401 114.83C557.563 114.83 555.935 115.256 554.514 116.108C553.113 116.941 552.014 118.068 551.219 119.489C550.423 120.89 550.016 122.453 549.997 124.176V131.307C549.997 133.466 550.395 135.331 551.19 136.903C552.005 138.475 553.151 139.688 554.628 140.54C556.105 141.392 557.857 141.818 559.884 141.818C561.228 141.818 562.459 141.629 563.577 141.25C564.694 140.871 565.651 140.303 566.446 139.545C567.241 138.788 567.848 137.86 568.264 136.761L579.457 137.5C578.889 140.189 577.724 142.538 575.963 144.545C574.221 146.534 571.967 148.087 569.202 149.205C566.455 150.303 563.283 150.852 559.685 150.852ZM587.611 150V106.364H599.344V113.977H599.798C600.594 111.269 601.929 109.223 603.804 107.841C605.679 106.439 607.838 105.739 610.281 105.739C610.887 105.739 611.541 105.777 612.241 105.852C612.942 105.928 613.558 106.032 614.088 106.165V116.903C613.52 116.733 612.734 116.581 611.73 116.449C610.726 116.316 609.808 116.25 608.974 116.25C607.194 116.25 605.603 116.638 604.202 117.415C602.819 118.172 601.721 119.233 600.906 120.597C600.111 121.96 599.713 123.532 599.713 125.312V150H587.611ZM656.652 118.807L645.572 119.489C645.383 118.542 644.976 117.689 644.351 116.932C643.726 116.155 642.902 115.54 641.879 115.085C640.875 114.612 639.673 114.375 638.271 114.375C636.396 114.375 634.815 114.773 633.527 115.568C632.239 116.345 631.595 117.386 631.595 118.693C631.595 119.735 632.012 120.616 632.845 121.335C633.679 122.055 635.108 122.633 637.135 123.068L645.033 124.659C649.275 125.53 652.438 126.932 654.521 128.864C656.605 130.795 657.646 133.333 657.646 136.477C657.646 139.337 656.804 141.847 655.118 144.006C653.451 146.165 651.16 147.85 648.243 149.062C645.345 150.256 642.002 150.852 638.214 150.852C632.438 150.852 627.836 149.65 624.408 147.244C620.999 144.82 619 141.525 618.413 137.358L630.317 136.733C630.677 138.494 631.548 139.839 632.93 140.767C634.313 141.676 636.084 142.131 638.243 142.131C640.364 142.131 642.069 141.723 643.357 140.909C644.663 140.076 645.326 139.006 645.345 137.699C645.326 136.6 644.862 135.701 643.953 135C643.044 134.28 641.643 133.731 639.749 133.352L632.192 131.847C627.93 130.994 624.758 129.517 622.675 127.415C620.61 125.312 619.578 122.633 619.578 119.375C619.578 116.572 620.336 114.157 621.851 112.131C623.385 110.104 625.535 108.542 628.3 107.443C631.084 106.345 634.341 105.795 638.072 105.795C643.584 105.795 647.921 106.96 651.084 109.29C654.266 111.619 656.122 114.792 656.652 118.807ZM677.71 150.824C674.926 150.824 672.445 150.341 670.267 149.375C668.089 148.39 666.366 146.941 665.097 145.028C663.847 143.097 663.222 140.691 663.222 137.812C663.222 135.388 663.667 133.352 664.557 131.705C665.447 130.057 666.659 128.731 668.193 127.727C669.727 126.723 671.47 125.966 673.42 125.455C675.39 124.943 677.455 124.583 679.614 124.375C682.152 124.11 684.197 123.864 685.75 123.636C687.303 123.39 688.43 123.03 689.131 122.557C689.831 122.083 690.182 121.383 690.182 120.455V120.284C690.182 118.485 689.614 117.093 688.477 116.108C687.36 115.123 685.769 114.631 683.705 114.631C681.527 114.631 679.794 115.114 678.506 116.08C677.218 117.027 676.366 118.22 675.949 119.659L664.756 118.75C665.324 116.098 666.441 113.807 668.108 111.875C669.775 109.924 671.924 108.428 674.557 107.386C677.208 106.326 680.277 105.795 683.761 105.795C686.186 105.795 688.506 106.08 690.722 106.648C692.956 107.216 694.936 108.097 696.659 109.29C698.402 110.483 699.775 112.017 700.778 113.892C701.782 115.748 702.284 117.973 702.284 120.568V150H690.807V143.949H690.466C689.765 145.312 688.828 146.515 687.653 147.557C686.479 148.58 685.068 149.384 683.42 149.972C681.773 150.54 679.869 150.824 677.71 150.824ZM681.176 142.472C682.956 142.472 684.528 142.121 685.892 141.42C687.256 140.701 688.326 139.735 689.102 138.523C689.879 137.311 690.267 135.937 690.267 134.403V129.773C689.888 130.019 689.367 130.246 688.705 130.455C688.061 130.644 687.331 130.824 686.517 130.994C685.703 131.146 684.888 131.288 684.074 131.42C683.259 131.534 682.521 131.638 681.858 131.733C680.438 131.941 679.197 132.273 678.136 132.727C677.076 133.182 676.252 133.797 675.665 134.574C675.078 135.331 674.784 136.278 674.784 137.415C674.784 139.062 675.381 140.322 676.574 141.193C677.786 142.045 679.32 142.472 681.176 142.472ZM711.673 150V106.364H723.207V114.062H723.719C724.628 111.506 726.143 109.489 728.264 108.011C730.385 106.534 732.923 105.795 735.878 105.795C738.87 105.795 741.418 106.544 743.52 108.04C745.622 109.517 747.024 111.525 747.724 114.062H748.179C749.069 111.562 750.679 109.564 753.009 108.068C755.357 106.553 758.132 105.795 761.332 105.795C765.404 105.795 768.709 107.093 771.247 109.688C773.804 112.263 775.082 115.919 775.082 120.653V150H763.009V123.04C763.009 120.616 762.365 118.797 761.077 117.585C759.789 116.373 758.179 115.767 756.247 115.767C754.05 115.767 752.336 116.468 751.105 117.869C749.874 119.252 749.259 121.08 749.259 123.352V150H737.526V122.784C737.526 120.644 736.91 118.939 735.679 117.67C734.467 116.402 732.866 115.767 730.878 115.767C729.533 115.767 728.321 116.108 727.241 116.79C726.181 117.453 725.338 118.39 724.713 119.602C724.088 120.795 723.776 122.197 723.776 123.807V150H711.673ZM797.085 150.824C794.301 150.824 791.82 150.341 789.642 149.375C787.464 148.39 785.741 146.941 784.472 145.028C783.222 143.097 782.597 140.691 782.597 137.812C782.597 135.388 783.042 133.352 783.932 131.705C784.822 130.057 786.034 128.731 787.568 127.727C789.102 126.723 790.845 125.966 792.795 125.455C794.765 124.943 796.83 124.583 798.989 124.375C801.527 124.11 803.572 123.864 805.125 123.636C806.678 123.39 807.805 123.03 808.506 122.557C809.206 122.083 809.557 121.383 809.557 120.455V120.284C809.557 118.485 808.989 117.093 807.852 116.108C806.735 115.123 805.144 114.631 803.08 114.631C800.902 114.631 799.169 115.114 797.881 116.08C796.593 117.027 795.741 118.22 795.324 119.659L784.131 118.75C784.699 116.098 785.816 113.807 787.483 111.875C789.15 109.924 791.299 108.428 793.932 107.386C796.583 106.326 799.652 105.795 803.136 105.795C805.561 105.795 807.881 106.08 810.097 106.648C812.331 107.216 814.311 108.097 816.034 109.29C817.777 110.483 819.15 112.017 820.153 113.892C821.157 115.748 821.659 117.973 821.659 120.568V150H810.182V143.949H809.841C809.14 145.312 808.203 146.515 807.028 147.557C805.854 148.58 804.443 149.384 802.795 149.972C801.148 150.54 799.244 150.824 797.085 150.824ZM800.551 142.472C802.331 142.472 803.903 142.121 805.267 141.42C806.631 140.701 807.701 139.735 808.477 138.523C809.254 137.311 809.642 135.937 809.642 134.403V129.773C809.263 130.019 808.742 130.246 808.08 130.455C807.436 130.644 806.706 130.824 805.892 130.994C805.078 131.146 804.263 131.288 803.449 131.42C802.634 131.534 801.896 131.638 801.233 131.733C799.813 131.941 798.572 132.273 797.511 132.727C796.451 133.182 795.627 133.797 795.04 134.574C794.453 135.331 794.159 136.278 794.159 137.415C794.159 139.062 794.756 140.322 795.949 141.193C797.161 142.045 798.695 142.472 800.551 142.472ZM60.6506 238H40.0256V179.818H60.821C66.6733 179.818 71.7112 180.983 75.9347 183.312C80.1581 185.623 83.4063 188.947 85.679 193.284C87.9706 197.621 89.1165 202.811 89.1165 208.852C89.1165 214.913 87.9706 220.121 85.679 224.477C83.4063 228.833 80.1392 232.176 75.8778 234.506C71.6354 236.835 66.5597 238 60.6506 238ZM52.3267 227.46H60.1392C63.7756 227.46 66.8343 226.816 69.3153 225.528C71.8153 224.222 73.6903 222.205 74.9403 219.477C76.2093 216.731 76.8438 213.189 76.8438 208.852C76.8438 204.553 76.2093 201.04 74.9403 198.312C73.6903 195.585 71.8248 193.578 69.3438 192.29C66.8627 191.002 63.804 190.358 60.1676 190.358H52.3267V227.46ZM110.445 238.824C107.661 238.824 105.179 238.341 103.001 237.375C100.823 236.39 99.0999 234.941 97.831 233.028C96.581 231.097 95.956 228.691 95.956 225.812C95.956 223.388 96.401 221.352 97.2912 219.705C98.1813 218.057 99.3935 216.731 100.928 215.727C102.462 214.723 104.204 213.966 106.155 213.455C108.125 212.943 110.189 212.583 112.348 212.375C114.886 212.11 116.931 211.864 118.484 211.636C120.037 211.39 121.164 211.03 121.865 210.557C122.566 210.083 122.916 209.383 122.916 208.455V208.284C122.916 206.485 122.348 205.093 121.212 204.108C120.094 203.123 118.503 202.631 116.439 202.631C114.261 202.631 112.528 203.114 111.24 204.08C109.952 205.027 109.1 206.22 108.683 207.659L97.4901 206.75C98.0582 204.098 99.1757 201.807 100.842 199.875C102.509 197.924 104.659 196.428 107.291 195.386C109.943 194.326 113.011 193.795 116.496 193.795C118.92 193.795 121.24 194.08 123.456 194.648C125.691 195.216 127.67 196.097 129.393 197.29C131.136 198.483 132.509 200.017 133.513 201.892C134.517 203.748 135.018 205.973 135.018 208.568V238H123.541V231.949H123.2C122.5 233.312 121.562 234.515 120.388 235.557C119.214 236.58 117.803 237.384 116.155 237.972C114.507 238.54 112.604 238.824 110.445 238.824ZM113.911 230.472C115.691 230.472 117.263 230.121 118.626 229.42C119.99 228.701 121.06 227.735 121.837 226.523C122.613 225.311 123.001 223.937 123.001 222.403V217.773C122.623 218.019 122.102 218.246 121.439 218.455C120.795 218.644 120.066 218.824 119.251 218.994C118.437 219.146 117.623 219.288 116.808 219.42C115.994 219.534 115.255 219.638 114.592 219.733C113.172 219.941 111.931 220.273 110.871 220.727C109.81 221.182 108.986 221.797 108.399 222.574C107.812 223.331 107.518 224.278 107.518 225.415C107.518 227.062 108.115 228.322 109.308 229.193C110.52 230.045 112.054 230.472 113.911 230.472ZM180.714 206.807L169.635 207.489C169.446 206.542 169.038 205.689 168.413 204.932C167.788 204.155 166.964 203.54 165.942 203.085C164.938 202.612 163.735 202.375 162.334 202.375C160.459 202.375 158.877 202.773 157.589 203.568C156.302 204.345 155.658 205.386 155.658 206.693C155.658 207.735 156.074 208.616 156.908 209.335C157.741 210.055 159.171 210.633 161.197 211.068L169.095 212.659C173.338 213.53 176.5 214.932 178.584 216.864C180.667 218.795 181.709 221.333 181.709 224.477C181.709 227.337 180.866 229.847 179.18 232.006C177.514 234.165 175.222 235.85 172.305 237.062C169.408 238.256 166.065 238.852 162.277 238.852C156.5 238.852 151.898 237.65 148.47 235.244C145.061 232.82 143.063 229.525 142.476 225.358L154.379 224.733C154.739 226.494 155.61 227.839 156.993 228.767C158.375 229.676 160.146 230.131 162.305 230.131C164.427 230.131 166.131 229.723 167.419 228.909C168.726 228.076 169.389 227.006 169.408 225.699C169.389 224.6 168.925 223.701 168.016 223C167.107 222.28 165.705 221.731 163.811 221.352L156.254 219.847C151.993 218.994 148.821 217.517 146.737 215.415C144.673 213.312 143.641 210.633 143.641 207.375C143.641 204.572 144.398 202.157 145.913 200.131C147.447 198.104 149.597 196.542 152.362 195.443C155.146 194.345 158.404 193.795 162.135 193.795C167.646 193.795 171.983 194.96 175.146 197.29C178.328 199.619 180.184 202.792 180.714 206.807ZM201.432 212.773V238H189.33V179.818H201.091V202.062H201.602C202.587 199.487 204.178 197.47 206.375 196.011C208.572 194.534 211.328 193.795 214.642 193.795C217.672 193.795 220.314 194.458 222.568 195.784C224.841 197.091 226.602 198.975 227.852 201.438C229.121 203.881 229.746 206.807 229.727 210.216V238H217.625V212.375C217.644 209.686 216.962 207.593 215.58 206.097C214.216 204.6 212.303 203.852 209.841 203.852C208.193 203.852 206.735 204.203 205.466 204.903C204.216 205.604 203.231 206.627 202.511 207.972C201.811 209.297 201.451 210.898 201.432 212.773ZM239.479 238V179.818H251.581V201.693H251.95C252.481 200.519 253.248 199.326 254.251 198.114C255.274 196.883 256.6 195.86 258.229 195.045C259.876 194.212 261.922 193.795 264.365 193.795C267.547 193.795 270.482 194.629 273.172 196.295C275.861 197.943 278.011 200.434 279.621 203.767C281.231 207.081 282.036 211.239 282.036 216.239C282.036 221.106 281.25 225.216 279.678 228.568C278.125 231.902 276.003 234.43 273.314 236.153C270.643 237.858 267.651 238.71 264.337 238.71C261.988 238.71 259.99 238.322 258.342 237.545C256.714 236.769 255.378 235.794 254.337 234.619C253.295 233.426 252.5 232.223 251.95 231.011H251.411V238H239.479ZM251.325 216.182C251.325 218.777 251.685 221.04 252.405 222.972C253.125 224.903 254.166 226.409 255.53 227.489C256.893 228.549 258.551 229.08 260.501 229.08C262.471 229.08 264.138 228.54 265.501 227.46C266.865 226.362 267.897 224.847 268.598 222.915C269.318 220.964 269.678 218.72 269.678 216.182C269.678 213.663 269.327 211.447 268.626 209.534C267.926 207.621 266.893 206.125 265.53 205.045C264.166 203.966 262.49 203.426 260.501 203.426C258.532 203.426 256.865 203.947 255.501 204.989C254.157 206.03 253.125 207.508 252.405 209.42C251.685 211.333 251.325 213.587 251.325 216.182ZM309.827 238.852C305.414 238.852 301.598 237.915 298.378 236.04C295.177 234.146 292.705 231.513 290.963 228.142C289.221 224.752 288.349 220.822 288.349 216.352C288.349 211.845 289.221 207.905 290.963 204.534C292.705 201.144 295.177 198.511 298.378 196.636C301.598 194.742 305.414 193.795 309.827 193.795C314.24 193.795 318.046 194.742 321.247 196.636C324.467 198.511 326.948 201.144 328.69 204.534C330.433 207.905 331.304 211.845 331.304 216.352C331.304 220.822 330.433 224.752 328.69 228.142C326.948 231.513 324.467 234.146 321.247 236.04C318.046 237.915 314.24 238.852 309.827 238.852ZM309.884 229.477C311.891 229.477 313.567 228.909 314.912 227.773C316.257 226.617 317.27 225.045 317.952 223.057C318.652 221.068 319.003 218.805 319.003 216.267C319.003 213.729 318.652 211.466 317.952 209.477C317.27 207.489 316.257 205.917 314.912 204.761C313.567 203.606 311.891 203.028 309.884 203.028C307.857 203.028 306.152 203.606 304.77 204.761C303.406 205.917 302.374 207.489 301.673 209.477C300.991 211.466 300.651 213.729 300.651 216.267C300.651 218.805 300.991 221.068 301.673 223.057C302.374 225.045 303.406 226.617 304.77 227.773C306.152 228.909 307.857 229.477 309.884 229.477ZM351.616 238.824C348.832 238.824 346.351 238.341 344.173 237.375C341.995 236.39 340.272 234.941 339.003 233.028C337.753 231.097 337.128 228.691 337.128 225.812C337.128 223.388 337.573 221.352 338.463 219.705C339.353 218.057 340.565 216.731 342.099 215.727C343.634 214.723 345.376 213.966 347.327 213.455C349.296 212.943 351.361 212.583 353.52 212.375C356.058 212.11 358.103 211.864 359.656 211.636C361.209 211.39 362.336 211.03 363.037 210.557C363.738 210.083 364.088 209.383 364.088 208.455V208.284C364.088 206.485 363.52 205.093 362.384 204.108C361.266 203.123 359.675 202.631 357.611 202.631C355.433 202.631 353.7 203.114 352.412 204.08C351.124 205.027 350.272 206.22 349.855 207.659L338.662 206.75C339.23 204.098 340.348 201.807 342.014 199.875C343.681 197.924 345.83 196.428 348.463 195.386C351.115 194.326 354.183 193.795 357.668 193.795C360.092 193.795 362.412 194.08 364.628 194.648C366.863 195.216 368.842 196.097 370.565 197.29C372.308 198.483 373.681 200.017 374.685 201.892C375.688 203.748 376.19 205.973 376.19 208.568V238H364.713V231.949H364.372C363.671 233.312 362.734 234.515 361.56 235.557C360.385 236.58 358.974 237.384 357.327 237.972C355.679 238.54 353.776 238.824 351.616 238.824ZM355.082 230.472C356.863 230.472 358.435 230.121 359.798 229.42C361.162 228.701 362.232 227.735 363.009 226.523C363.785 225.311 364.173 223.937 364.173 222.403V217.773C363.795 218.019 363.274 218.246 362.611 218.455C361.967 218.644 361.238 218.824 360.423 218.994C359.609 219.146 358.795 219.288 357.98 219.42C357.166 219.534 356.427 219.638 355.764 219.733C354.344 219.941 353.103 220.273 352.043 220.727C350.982 221.182 350.158 221.797 349.571 222.574C348.984 223.331 348.69 224.278 348.69 225.415C348.69 227.062 349.287 228.322 350.48 229.193C351.692 230.045 353.226 230.472 355.082 230.472ZM385.58 238V194.364H397.312V201.977H397.767C398.563 199.269 399.898 197.223 401.773 195.841C403.648 194.439 405.807 193.739 408.25 193.739C408.856 193.739 409.509 193.777 410.21 193.852C410.911 193.928 411.527 194.032 412.057 194.165V204.903C411.489 204.733 410.703 204.581 409.699 204.449C408.695 204.316 407.777 204.25 406.943 204.25C405.163 204.25 403.572 204.638 402.17 205.415C400.788 206.172 399.689 207.233 398.875 208.597C398.08 209.96 397.682 211.532 397.682 213.312V238H385.58ZM432.362 238.71C429.048 238.71 426.046 237.858 423.357 236.153C420.686 234.43 418.565 231.902 416.993 228.568C415.44 225.216 414.663 221.106 414.663 216.239C414.663 211.239 415.468 207.081 417.078 203.767C418.688 200.434 420.828 197.943 423.499 196.295C426.188 194.629 429.133 193.795 432.334 193.795C434.777 193.795 436.813 194.212 438.442 195.045C440.089 195.86 441.415 196.883 442.419 198.114C443.442 199.326 444.218 200.519 444.749 201.693H445.118V179.818H457.192V238H445.26V231.011H444.749C444.18 232.223 443.375 233.426 442.334 234.619C441.311 235.794 439.976 236.769 438.328 237.545C436.699 238.322 434.711 238.71 432.362 238.71ZM436.197 229.08C438.148 229.08 439.796 228.549 441.141 227.489C442.504 226.409 443.546 224.903 444.266 222.972C445.004 221.04 445.374 218.777 445.374 216.182C445.374 213.587 445.014 211.333 444.294 209.42C443.574 207.508 442.533 206.03 441.169 204.989C439.805 203.947 438.148 203.426 436.197 203.426C434.209 203.426 432.533 203.966 431.169 205.045C429.805 206.125 428.773 207.621 428.072 209.534C427.372 211.447 427.021 213.663 427.021 216.182C427.021 218.72 427.372 220.964 428.072 222.915C428.792 224.847 429.824 226.362 431.169 227.46C432.533 228.54 434.209 229.08 436.197 229.08ZM485.885 238V179.818H525.089V189.96H498.186V203.824H523.072V213.966H498.186V227.858H525.203V238H485.885ZM534.642 238V194.364H546.375V201.977H546.83C547.625 199.269 548.96 197.223 550.835 195.841C552.71 194.439 554.869 193.739 557.312 193.739C557.919 193.739 558.572 193.777 559.273 193.852C559.973 193.928 560.589 194.032 561.119 194.165V204.903C560.551 204.733 559.765 204.581 558.761 204.449C557.758 204.316 556.839 204.25 556.006 204.25C554.225 204.25 552.634 204.638 551.233 205.415C549.85 206.172 548.752 207.233 547.938 208.597C547.142 209.96 546.744 211.532 546.744 213.312V238H534.642ZM585.004 255.273C581.084 255.273 577.722 254.733 574.919 253.653C572.135 252.593 569.919 251.144 568.271 249.307C566.624 247.47 565.554 245.405 565.061 243.114L576.254 241.608C576.595 242.479 577.135 243.294 577.874 244.051C578.612 244.809 579.588 245.415 580.8 245.869C582.031 246.343 583.527 246.58 585.288 246.58C587.921 246.58 590.089 245.936 591.794 244.648C593.518 243.379 594.379 241.248 594.379 238.256V230.273H593.868C593.338 231.485 592.542 232.631 591.482 233.71C590.421 234.79 589.057 235.67 587.391 236.352C585.724 237.034 583.735 237.375 581.425 237.375C578.148 237.375 575.165 236.617 572.476 235.102C569.805 233.568 567.675 231.229 566.084 228.085C564.512 224.922 563.726 220.926 563.726 216.097C563.726 211.153 564.531 207.025 566.141 203.71C567.75 200.396 569.891 197.915 572.561 196.267C575.25 194.619 578.196 193.795 581.396 193.795C583.839 193.795 585.885 194.212 587.533 195.045C589.18 195.86 590.506 196.883 591.51 198.114C592.533 199.326 593.319 200.519 593.868 201.693H594.322V194.364H606.339V238.426C606.339 242.138 605.43 245.244 603.612 247.744C601.794 250.244 599.275 252.119 596.055 253.369C592.855 254.638 589.171 255.273 585.004 255.273ZM585.26 228.284C587.211 228.284 588.858 227.801 590.203 226.835C591.567 225.85 592.608 224.449 593.328 222.631C594.067 220.794 594.436 218.597 594.436 216.04C594.436 213.483 594.076 211.267 593.357 209.392C592.637 207.498 591.595 206.03 590.232 204.989C588.868 203.947 587.211 203.426 585.26 203.426C583.271 203.426 581.595 203.966 580.232 205.045C578.868 206.106 577.836 207.583 577.135 209.477C576.434 211.371 576.084 213.559 576.084 216.04C576.084 218.559 576.434 220.737 577.135 222.574C577.855 224.392 578.887 225.803 580.232 226.807C581.595 227.792 583.271 228.284 585.26 228.284ZM635.686 238.852C631.273 238.852 627.457 237.915 624.237 236.04C621.036 234.146 618.565 231.513 616.822 228.142C615.08 224.752 614.209 220.822 614.209 216.352C614.209 211.845 615.08 207.905 616.822 204.534C618.565 201.144 621.036 198.511 624.237 196.636C627.457 194.742 631.273 193.795 635.686 193.795C640.099 193.795 643.906 194.742 647.107 196.636C650.326 198.511 652.807 201.144 654.55 204.534C656.292 207.905 657.163 211.845 657.163 216.352C657.163 220.822 656.292 224.752 654.55 228.142C652.807 231.513 650.326 234.146 647.107 236.04C643.906 237.915 640.099 238.852 635.686 238.852ZM635.743 229.477C637.75 229.477 639.427 228.909 640.771 227.773C642.116 226.617 643.129 225.045 643.811 223.057C644.512 221.068 644.862 218.805 644.862 216.267C644.862 213.729 644.512 211.466 643.811 209.477C643.129 207.489 642.116 205.917 640.771 204.761C639.427 203.606 637.75 203.028 635.743 203.028C633.716 203.028 632.012 203.606 630.629 204.761C629.266 205.917 628.233 207.489 627.533 209.477C626.851 211.466 626.51 213.729 626.51 216.267C626.51 218.805 626.851 221.068 627.533 223.057C628.233 225.045 629.266 226.617 630.629 227.773C632.012 228.909 633.716 229.477 635.743 229.477ZM677.135 212.773V238H665.033V194.364H676.567V202.062H677.078C678.044 199.525 679.663 197.517 681.936 196.04C684.209 194.544 686.964 193.795 690.203 193.795C693.233 193.795 695.875 194.458 698.129 195.784C700.383 197.11 702.135 199.004 703.385 201.466C704.635 203.909 705.26 206.826 705.26 210.216V238H693.158V212.375C693.177 209.705 692.495 207.621 691.112 206.125C689.73 204.61 687.826 203.852 685.402 203.852C683.773 203.852 682.334 204.203 681.084 204.903C679.853 205.604 678.887 206.627 678.186 207.972C677.504 209.297 677.154 210.898 677.135 212.773ZM714.798 238V194.364H726.901V238H714.798ZM720.878 188.739C719.079 188.739 717.535 188.142 716.247 186.949C714.978 185.737 714.344 184.288 714.344 182.602C714.344 180.936 714.978 179.506 716.247 178.312C717.535 177.1 719.079 176.494 720.878 176.494C722.677 176.494 724.211 177.1 725.48 178.312C726.768 179.506 727.412 180.936 727.412 182.602C727.412 184.288 726.768 185.737 725.48 186.949C724.211 188.142 722.677 188.739 720.878 188.739ZM736.368 238V230.784L757.732 204.335V204.023H737.107V194.364H772.305V202.233L752.249 228.028V228.341H773.044V238H736.368ZM800.935 238.852C796.446 238.852 792.582 237.943 789.344 236.125C786.124 234.288 783.643 231.693 781.901 228.341C780.158 224.97 779.287 220.983 779.287 216.381C779.287 211.892 780.158 207.953 781.901 204.562C783.643 201.172 786.096 198.53 789.259 196.636C792.44 194.742 796.171 193.795 800.452 193.795C803.33 193.795 806.01 194.259 808.491 195.188C810.991 196.097 813.17 197.47 815.026 199.307C816.901 201.144 818.359 203.455 819.401 206.239C820.442 209.004 820.963 212.242 820.963 215.955V219.278H784.116V211.778H809.571C809.571 210.036 809.192 208.492 808.435 207.148C807.677 205.803 806.626 204.752 805.281 203.994C803.955 203.218 802.412 202.83 800.651 202.83C798.813 202.83 797.185 203.256 795.764 204.108C794.363 204.941 793.264 206.068 792.469 207.489C791.673 208.89 791.266 210.453 791.247 212.176V219.307C791.247 221.466 791.645 223.331 792.44 224.903C793.255 226.475 794.401 227.688 795.878 228.54C797.355 229.392 799.107 229.818 801.134 229.818C802.478 229.818 803.709 229.629 804.827 229.25C805.944 228.871 806.901 228.303 807.696 227.545C808.491 226.788 809.098 225.86 809.514 224.761L820.707 225.5C820.139 228.189 818.974 230.538 817.213 232.545C815.471 234.534 813.217 236.087 810.452 237.205C807.705 238.303 804.533 238.852 800.935 238.852Z" fill="url(#paint0_radial_165_2478)"/>
<defs>
<radialGradient id="paint0_radial_165_2478" cx="0" cy="0" r="1" gradientUnits="userSpaceOnUse" gradientTransform="translate(429.5 121) scale(434.5 132)">
<stop stop-color="#FBBA18" stop-opacity="0.8"/>
<stop offset="1" stop-color="white"/>
</radialGradient>
</defs>
</svg>
