<svg width="393" height="40" viewBox="0 0 393 40" fill="none" xmlns="http://www.w3.org/2000/svg">
<rect width="393" height="40" rx="8" fill="#E8DEEE"/>
<path d="M20 20H25V25H20V20ZM27 11H26V9H24V11H16V9H14V11H13C11.9 11 11 11.9 11 13V27C11 28.1 11.9 29 13 29H27C28.1 29 29 28.1 29 27V13C29 11.9 28.1 11 27 11ZM27 13V15H13V13H27ZM13 27V17H27V27H13Z" fill="#121926"/>
<path d="M42.3068 27H37.598V12.4545H42.456C43.8812 12.4545 45.1051 12.7457 46.1278 13.3281C47.1506 13.9058 47.9342 14.7367 48.4787 15.821C49.0279 16.9006 49.3026 18.1955 49.3026 19.706C49.3026 21.2211 49.0256 22.5232 48.4716 23.6122C47.9223 24.7012 47.1269 25.5393 46.0852 26.1264C45.0436 26.7088 43.7841 27 42.3068 27ZM39.7926 25.0824H42.1861C43.294 25.0824 44.215 24.8741 44.9489 24.4574C45.6828 24.036 46.232 23.4276 46.5966 22.6321C46.9612 21.8319 47.1435 20.8565 47.1435 19.706C47.1435 18.5649 46.9612 17.5966 46.5966 16.8011C46.2367 16.0057 45.6993 15.402 44.9844 14.9901C44.2694 14.5781 43.3816 14.3722 42.321 14.3722H39.7926V25.0824ZM55.0359 27.2415C54.3446 27.2415 53.7196 27.1136 53.1609 26.858C52.6022 26.5975 52.1594 26.2211 51.8327 25.7287C51.5108 25.2363 51.3498 24.6326 51.3498 23.9176C51.3498 23.3021 51.4682 22.7955 51.7049 22.3977C51.9416 22 52.2612 21.6851 52.6637 21.4531C53.0662 21.2211 53.516 21.0459 54.0131 20.9276C54.5103 20.8092 55.0169 20.7192 55.533 20.6577C56.1864 20.5819 56.7167 20.5204 57.1239 20.473C57.5311 20.4209 57.8271 20.3381 58.0117 20.2244C58.1964 20.1108 58.2887 19.9261 58.2887 19.6705V19.6207C58.2887 19.0005 58.1135 18.5199 57.7631 18.179C57.4175 17.8381 56.9014 17.6676 56.2148 17.6676C55.4999 17.6676 54.9364 17.8262 54.5245 18.1435C54.1173 18.456 53.8356 18.804 53.6793 19.1875L51.6836 18.733C51.9203 18.0701 52.266 17.535 52.7205 17.1278C53.1798 16.7159 53.7077 16.4176 54.3043 16.233C54.9009 16.0436 55.5283 15.9489 56.1864 15.9489C56.622 15.9489 57.0837 16.0009 57.5714 16.1051C58.0638 16.2045 58.5231 16.3892 58.9492 16.6591C59.3801 16.929 59.7328 17.3149 60.0075 17.8168C60.2821 18.3139 60.4194 18.9602 60.4194 19.7557V27H58.3455V25.5085H58.2603C58.123 25.7831 57.917 26.053 57.6424 26.3182C57.3678 26.5833 57.015 26.8035 56.5842 26.9787C56.1533 27.1539 55.6372 27.2415 55.0359 27.2415ZM55.4975 25.5369C56.0846 25.5369 56.5865 25.4209 57.0032 25.1889C57.4246 24.9569 57.7442 24.6539 57.962 24.2798C58.1845 23.901 58.2958 23.4962 58.2958 23.0653V21.6591C58.2201 21.7348 58.0733 21.8059 57.8555 21.8722C57.6424 21.9337 57.3986 21.9882 57.1239 22.0355C56.8493 22.0781 56.5818 22.1184 56.3214 22.1562C56.061 22.1894 55.8432 22.2178 55.668 22.2415C55.256 22.2936 54.8796 22.3812 54.5387 22.5043C54.2025 22.6274 53.9326 22.8049 53.729 23.0369C53.5302 23.2642 53.4308 23.5672 53.4308 23.946C53.4308 24.4716 53.6249 24.8693 54.0131 25.1392C54.4014 25.4044 54.8962 25.5369 55.4975 25.5369ZM68.4396 16.0909V17.7955H62.2749V16.0909H68.4396ZM63.9652 27V14.8267C63.9652 14.1449 64.1143 13.5791 64.4126 13.1293C64.7109 12.6747 65.1063 12.3362 65.5987 12.1136C66.0911 11.8864 66.6262 11.7727 67.2038 11.7727C67.63 11.7727 67.9946 11.8082 68.2976 11.8793C68.6006 11.9455 68.8255 12.0071 68.9723 12.0639L68.4751 13.7827C68.3757 13.7543 68.2479 13.7211 68.0916 13.6832C67.9354 13.6406 67.746 13.6193 67.5234 13.6193C67.0073 13.6193 66.638 13.7472 66.4155 14.0028C66.1977 14.2585 66.0888 14.6278 66.0888 15.1108V27H63.9652ZM75.723 16.0909V17.7955H69.7642V16.0909H75.723ZM71.3622 13.4773H73.4858V23.7969C73.4858 24.2088 73.5473 24.5189 73.6705 24.7273C73.7936 24.9309 73.9522 25.0705 74.1463 25.1463C74.3452 25.2173 74.5606 25.2528 74.7926 25.2528C74.9631 25.2528 75.1122 25.241 75.2401 25.2173C75.3679 25.1937 75.4673 25.1747 75.5384 25.1605L75.9219 26.9148C75.7988 26.9621 75.6236 27.0095 75.3963 27.0568C75.169 27.1089 74.8849 27.1373 74.544 27.142C73.9853 27.1515 73.4645 27.0521 72.9815 26.8438C72.4986 26.6354 72.108 26.3134 71.8097 25.8778C71.5114 25.4422 71.3622 24.8954 71.3622 24.2372V13.4773ZM81.2468 27.2415C80.5555 27.2415 79.9305 27.1136 79.3718 26.858C78.8131 26.5975 78.3704 26.2211 78.0437 25.7287C77.7217 25.2363 77.5607 24.6326 77.5607 23.9176C77.5607 23.3021 77.6791 22.7955 77.9158 22.3977C78.1526 22 78.4722 21.6851 78.8746 21.4531C79.2771 21.2211 79.7269 21.0459 80.2241 20.9276C80.7212 20.8092 81.2279 20.7192 81.744 20.6577C82.3974 20.5819 82.9277 20.5204 83.3349 20.473C83.7421 20.4209 84.038 20.3381 84.2227 20.2244C84.4073 20.1108 84.4996 19.9261 84.4996 19.6705V19.6207C84.4996 19.0005 84.3245 18.5199 83.9741 18.179C83.6284 17.8381 83.1123 17.6676 82.4258 17.6676C81.7108 17.6676 81.1474 17.8262 80.7354 18.1435C80.3282 18.456 80.0465 18.804 79.8903 19.1875L77.8945 18.733C78.1313 18.0701 78.4769 17.535 78.9315 17.1278C79.3907 16.7159 79.9187 16.4176 80.5153 16.233C81.1119 16.0436 81.7392 15.9489 82.3974 15.9489C82.833 15.9489 83.2946 16.0009 83.7823 16.1051C84.2747 16.2045 84.734 16.3892 85.1602 16.6591C85.591 16.929 85.9438 17.3149 86.2184 17.8168C86.493 18.3139 86.6303 18.9602 86.6303 19.7557V27H84.5565V25.5085H84.4712C84.3339 25.7831 84.128 26.053 83.8533 26.3182C83.5787 26.5833 83.226 26.8035 82.7951 26.9787C82.3642 27.1539 81.8481 27.2415 81.2468 27.2415ZM81.7085 25.5369C82.2956 25.5369 82.7975 25.4209 83.2141 25.1889C83.6355 24.9569 83.9551 24.6539 84.1729 24.2798C84.3955 23.901 84.5067 23.4962 84.5067 23.0653V21.6591C84.431 21.7348 84.2842 21.8059 84.0664 21.8722C83.8533 21.9337 83.6095 21.9882 83.3349 22.0355C83.0603 22.0781 82.7927 22.1184 82.5323 22.1562C82.2719 22.1894 82.0541 22.2178 81.8789 22.2415C81.467 22.2936 81.0906 22.3812 80.7496 22.5043C80.4135 22.6274 80.1436 22.8049 79.94 23.0369C79.7411 23.2642 79.6417 23.5672 79.6417 23.946C79.6417 24.4716 79.8358 24.8693 80.2241 25.1392C80.6123 25.4044 81.1071 25.5369 81.7085 25.5369ZM89.4588 27V16.0909H91.5114V17.8239H91.625C91.8239 17.2367 92.1742 16.7751 92.6761 16.4389C93.1828 16.098 93.7557 15.9276 94.3949 15.9276C94.5275 15.9276 94.6837 15.9323 94.8636 15.9418C95.0483 15.9512 95.1927 15.9631 95.2969 15.9773V18.0085C95.2116 17.9848 95.0601 17.9588 94.8423 17.9304C94.6245 17.8973 94.4067 17.8807 94.1889 17.8807C93.687 17.8807 93.2396 17.9872 92.8466 18.2003C92.4583 18.4086 92.1506 18.6998 91.9233 19.0739C91.696 19.4432 91.5824 19.8646 91.5824 20.3381V27H89.4588ZM101.881 14.3438V12.4545H113.138V14.3438H108.599V27H106.412V14.3438H101.881ZM118.468 27.2202C117.445 27.2202 116.553 26.9858 115.79 26.517C115.028 26.0483 114.436 25.3925 114.015 24.5497C113.594 23.7069 113.383 22.7221 113.383 21.5952C113.383 20.4635 113.594 19.474 114.015 18.6264C114.436 17.7789 115.028 17.1207 115.79 16.652C116.553 16.1832 117.445 15.9489 118.468 15.9489C119.491 15.9489 120.383 16.1832 121.146 16.652C121.908 17.1207 122.5 17.7789 122.921 18.6264C123.343 19.474 123.553 20.4635 123.553 21.5952C123.553 22.7221 123.343 23.7069 122.921 24.5497C122.5 25.3925 121.908 26.0483 121.146 26.517C120.383 26.9858 119.491 27.2202 118.468 27.2202ZM118.475 25.4375C119.138 25.4375 119.687 25.2623 120.123 24.9119C120.558 24.5616 120.88 24.0952 121.089 23.5128C121.302 22.9304 121.408 22.2888 121.408 21.5881C121.408 20.892 121.302 20.2528 121.089 19.6705C120.88 19.0833 120.558 18.6122 120.123 18.2571C119.687 17.902 119.138 17.7244 118.475 17.7244C117.808 17.7244 117.254 17.902 116.813 18.2571C116.378 18.6122 116.053 19.0833 115.84 19.6705C115.632 20.2528 115.528 20.892 115.528 21.5881C115.528 22.2888 115.632 22.9304 115.84 23.5128C116.053 24.0952 116.378 24.5616 116.813 24.9119C117.254 25.2623 117.808 25.4375 118.475 25.4375ZM132.351 19.9332V21.7727H125.902V19.9332H132.351ZM140.061 27H135.352V12.4545H140.21C141.635 12.4545 142.859 12.7457 143.882 13.3281C144.904 13.9058 145.688 14.7367 146.233 15.821C146.782 16.9006 147.056 18.1955 147.056 19.706C147.056 21.2211 146.779 22.5232 146.225 23.6122C145.676 24.7012 144.881 25.5393 143.839 26.1264C142.797 26.7088 141.538 27 140.061 27ZM137.547 25.0824H139.94C141.048 25.0824 141.969 24.8741 142.703 24.4574C143.437 24.036 143.986 23.4276 144.35 22.6321C144.715 21.8319 144.897 20.8565 144.897 19.706C144.897 18.5649 144.715 17.5966 144.35 16.8011C143.991 16.0057 143.453 15.402 142.738 14.9901C142.023 14.5781 141.136 14.3722 140.075 14.3722H137.547V25.0824ZM154.21 27.2202C153.188 27.2202 152.295 26.9858 151.533 26.517C150.77 26.0483 150.179 25.3925 149.757 24.5497C149.336 23.7069 149.125 22.7221 149.125 21.5952C149.125 20.4635 149.336 19.474 149.757 18.6264C150.179 17.7789 150.77 17.1207 151.533 16.652C152.295 16.1832 153.188 15.9489 154.21 15.9489C155.233 15.9489 156.125 16.1832 156.888 16.652C157.65 17.1207 158.242 17.7789 158.663 18.6264C159.085 19.474 159.295 20.4635 159.295 21.5952C159.295 22.7221 159.085 23.7069 158.663 24.5497C158.242 25.3925 157.65 26.0483 156.888 26.517C156.125 26.9858 155.233 27.2202 154.21 27.2202ZM154.217 25.4375C154.88 25.4375 155.429 25.2623 155.865 24.9119C156.301 24.5616 156.623 24.0952 156.831 23.5128C157.044 22.9304 157.151 22.2888 157.151 21.5881C157.151 20.892 157.044 20.2528 156.831 19.6705C156.623 19.0833 156.301 18.6122 155.865 18.2571C155.429 17.902 154.88 17.7244 154.217 17.7244C153.55 17.7244 152.996 17.902 152.555 18.2571C152.12 18.6122 151.795 19.0833 151.582 19.6705C151.374 20.2528 151.27 20.892 151.27 21.5881C151.27 22.2888 151.374 22.9304 151.582 23.5128C151.795 24.0952 152.12 24.5616 152.555 24.9119C152.996 25.2623 153.55 25.4375 154.217 25.4375ZM171.043 27.2131C170.162 27.2131 169.376 26.9882 168.685 26.5384C167.998 26.0838 167.458 25.4375 167.065 24.5994C166.677 23.7566 166.483 22.7457 166.483 21.5668C166.483 20.3878 166.679 19.3793 167.072 18.5412C167.47 17.7031 168.015 17.0616 168.706 16.6165C169.397 16.1714 170.181 15.9489 171.057 15.9489C171.734 15.9489 172.278 16.0625 172.69 16.2898C173.107 16.5123 173.429 16.7727 173.656 17.071C173.888 17.3693 174.068 17.6321 174.196 17.8594H174.324V12.4545H176.447V27H174.374V25.3026H174.196C174.068 25.5346 173.884 25.7997 173.642 26.098C173.405 26.3963 173.079 26.6567 172.662 26.8793C172.245 27.1018 171.705 27.2131 171.043 27.2131ZM171.511 25.402C172.122 25.402 172.638 25.241 173.06 24.919C173.486 24.5923 173.808 24.1402 174.026 23.5625C174.248 22.9848 174.359 22.3125 174.359 21.5455C174.359 20.7879 174.25 20.125 174.033 19.5568C173.815 18.9886 173.495 18.5459 173.074 18.2287C172.652 17.9115 172.132 17.7528 171.511 17.7528C170.872 17.7528 170.339 17.9186 169.913 18.25C169.487 18.5814 169.165 19.0336 168.947 19.6065C168.734 20.1795 168.628 20.8258 168.628 21.5455C168.628 22.2746 168.737 22.9304 168.955 23.5128C169.172 24.0952 169.494 24.5568 169.92 24.8977C170.351 25.2339 170.882 25.402 171.511 25.402ZM182.653 27.2415C181.962 27.2415 181.337 27.1136 180.778 26.858C180.219 26.5975 179.777 26.2211 179.45 25.7287C179.128 25.2363 178.967 24.6326 178.967 23.9176C178.967 23.3021 179.085 22.7955 179.322 22.3977C179.559 22 179.878 21.6851 180.281 21.4531C180.683 21.2211 181.133 21.0459 181.63 20.9276C182.127 20.8092 182.634 20.7192 183.15 20.6577C183.804 20.5819 184.334 20.5204 184.741 20.473C185.148 20.4209 185.444 20.3381 185.629 20.2244C185.814 20.1108 185.906 19.9261 185.906 19.6705V19.6207C185.906 19.0005 185.731 18.5199 185.38 18.179C185.035 17.8381 184.519 17.6676 183.832 17.6676C183.117 17.6676 182.554 17.8262 182.142 18.1435C181.734 18.456 181.453 18.804 181.297 19.1875L179.301 18.733C179.538 18.0701 179.883 17.535 180.338 17.1278C180.797 16.7159 181.325 16.4176 181.922 16.233C182.518 16.0436 183.145 15.9489 183.804 15.9489C184.239 15.9489 184.701 16.0009 185.189 16.1051C185.681 16.2045 186.14 16.3892 186.566 16.6591C186.997 16.929 187.35 17.3149 187.625 17.8168C187.899 18.3139 188.037 18.9602 188.037 19.7557V27H185.963V25.5085H185.877C185.74 25.7831 185.534 26.053 185.26 26.3182C184.985 26.5833 184.632 26.8035 184.201 26.9787C183.77 27.1539 183.254 27.2415 182.653 27.2415ZM183.115 25.5369C183.702 25.5369 184.204 25.4209 184.62 25.1889C185.042 24.9569 185.361 24.6539 185.579 24.2798C185.802 23.901 185.913 23.4962 185.913 23.0653V21.6591C185.837 21.7348 185.69 21.8059 185.473 21.8722C185.26 21.9337 185.016 21.9882 184.741 22.0355C184.467 22.0781 184.199 22.1184 183.939 22.1562C183.678 22.1894 183.46 22.2178 183.285 22.2415C182.873 22.2936 182.497 22.3812 182.156 22.5043C181.82 22.6274 181.55 22.8049 181.346 23.0369C181.147 23.2642 181.048 23.5672 181.048 23.946C181.048 24.4716 181.242 24.8693 181.63 25.1392C182.019 25.4044 182.513 25.5369 183.115 25.5369ZM192.989 20.5227V27H190.865V16.0909H192.903V17.8665H193.038C193.289 17.2888 193.682 16.8248 194.217 16.4744C194.757 16.1241 195.437 15.9489 196.256 15.9489C196.999 15.9489 197.65 16.1051 198.209 16.4176C198.768 16.7254 199.201 17.1847 199.509 17.7955C199.816 18.4062 199.97 19.1615 199.97 20.0611V27H197.847V20.3168C197.847 19.526 197.641 18.9081 197.229 18.4631C196.817 18.0133 196.251 17.7884 195.531 17.7884C195.039 17.7884 194.601 17.8949 194.217 18.108C193.839 18.321 193.538 18.6335 193.315 19.0455C193.098 19.4527 192.989 19.9451 192.989 20.5227ZM210.476 12.4545V27H208.282V12.4545H210.476ZM215.625 20.5227V27H213.502V16.0909H215.54V17.8665H215.675C215.926 17.2888 216.319 16.8248 216.854 16.4744C217.394 16.1241 218.073 15.9489 218.892 15.9489C219.636 15.9489 220.287 16.1051 220.846 16.4176C221.404 16.7254 221.837 17.1847 222.145 17.7955C222.453 18.4062 222.607 19.1615 222.607 20.0611V27H220.483V20.3168C220.483 19.526 220.277 18.9081 219.865 18.4631C219.453 18.0133 218.888 17.7884 218.168 17.7884C217.676 17.7884 217.238 17.8949 216.854 18.108C216.475 18.321 216.175 18.6335 215.952 19.0455C215.734 19.4527 215.625 19.9451 215.625 20.5227ZM230.547 16.0909V17.7955H224.588V16.0909H230.547ZM226.186 13.4773H228.31V23.7969C228.31 24.2088 228.372 24.5189 228.495 24.7273C228.618 24.9309 228.776 25.0705 228.971 25.1463C229.169 25.2173 229.385 25.2528 229.617 25.2528C229.787 25.2528 229.936 25.241 230.064 25.2173C230.192 25.1937 230.292 25.1747 230.363 25.1605L230.746 26.9148C230.623 26.9621 230.448 27.0095 230.221 27.0568C229.993 27.1089 229.709 27.1373 229.368 27.142C228.81 27.1515 228.289 27.0521 227.806 26.8438C227.323 26.6354 226.932 26.3134 226.634 25.8778C226.336 25.4422 226.186 24.8954 226.186 24.2372V13.4773ZM237.481 27.2202C236.406 27.2202 235.48 26.9905 234.704 26.5312C233.932 26.0672 233.335 25.4162 232.914 24.5781C232.497 23.7353 232.289 22.7481 232.289 21.6165C232.289 20.4991 232.497 19.5142 232.914 18.6619C233.335 17.8097 233.923 17.1444 234.675 16.6662C235.433 16.188 236.318 15.9489 237.332 15.9489C237.947 15.9489 238.544 16.0507 239.121 16.2543C239.699 16.4579 240.218 16.7775 240.677 17.2131C241.136 17.6487 241.498 18.2145 241.763 18.9105C242.029 19.6018 242.161 20.4422 242.161 21.4318V22.1847H233.489V20.5938H240.08C240.08 20.035 239.967 19.5402 239.739 19.1094C239.512 18.6738 239.192 18.3305 238.781 18.0795C238.373 17.8286 237.895 17.7031 237.346 17.7031C236.749 17.7031 236.228 17.8499 235.783 18.1435C235.343 18.4323 235.002 18.8111 234.761 19.2798C234.524 19.7438 234.406 20.2481 234.406 20.7926V22.0355C234.406 22.7647 234.533 23.3849 234.789 23.8963C235.049 24.4077 235.412 24.7983 235.876 25.0682C236.34 25.3333 236.882 25.4659 237.502 25.4659C237.905 25.4659 238.272 25.4091 238.603 25.2955C238.934 25.1771 239.221 25.0019 239.462 24.7699C239.704 24.5379 239.888 24.2514 240.016 23.9105L242.026 24.2727C241.865 24.8646 241.576 25.383 241.16 25.8281C240.748 26.2685 240.229 26.6117 239.604 26.858C238.984 27.0994 238.276 27.2202 237.481 27.2202ZM249.091 31.3182C248.225 31.3182 247.479 31.2045 246.854 30.9773C246.234 30.75 245.727 30.4493 245.334 30.0753C244.941 29.7012 244.648 29.2917 244.453 28.8466L246.279 28.0938C246.407 28.3021 246.577 28.5223 246.79 28.7543C247.008 28.991 247.301 29.1922 247.671 29.358C248.045 29.5237 248.525 29.6065 249.113 29.6065C249.917 29.6065 250.583 29.41 251.108 29.017C251.634 28.6288 251.897 28.0085 251.897 27.1562V25.0114H251.762C251.634 25.2434 251.449 25.5014 251.208 25.7855C250.971 26.0696 250.644 26.3158 250.228 26.5241C249.811 26.7325 249.269 26.8366 248.601 26.8366C247.739 26.8366 246.963 26.6354 246.272 26.233C245.585 25.8258 245.041 25.2268 244.638 24.4361C244.24 23.6406 244.042 22.6629 244.042 21.5028C244.042 20.3428 244.238 19.3485 244.631 18.5199C245.029 17.6913 245.573 17.0568 246.265 16.6165C246.956 16.1714 247.739 15.9489 248.615 15.9489C249.292 15.9489 249.839 16.0625 250.256 16.2898C250.673 16.5123 250.997 16.7727 251.229 17.071C251.466 17.3693 251.648 17.6321 251.776 17.8594H251.932V16.0909H254.013V27.2415C254.013 28.179 253.795 28.9484 253.36 29.5497C252.924 30.151 252.335 30.5961 251.591 30.8849C250.853 31.1738 250.019 31.3182 249.091 31.3182ZM249.07 25.0753C249.681 25.0753 250.197 24.9332 250.618 24.6491C251.044 24.3603 251.366 23.9484 251.584 23.4134C251.807 22.8736 251.918 22.2273 251.918 21.4744C251.918 20.7405 251.809 20.0942 251.591 19.5355C251.373 18.9768 251.054 18.5412 250.632 18.2287C250.211 17.9115 249.69 17.7528 249.07 17.7528C248.431 17.7528 247.898 17.9186 247.472 18.25C247.046 18.5767 246.724 19.0218 246.506 19.5852C246.293 20.1487 246.186 20.7784 246.186 21.4744C246.186 22.1894 246.295 22.8168 246.513 23.3565C246.731 23.8963 247.053 24.3177 247.479 24.6207C247.91 24.9238 248.44 25.0753 249.07 25.0753ZM256.861 27V16.0909H258.914V17.8239H259.027C259.226 17.2367 259.577 16.7751 260.078 16.4389C260.585 16.098 261.158 15.9276 261.797 15.9276C261.93 15.9276 262.086 15.9323 262.266 15.9418C262.451 15.9512 262.595 15.9631 262.699 15.9773V18.0085C262.614 17.9848 262.462 17.9588 262.245 17.9304C262.027 17.8973 261.809 17.8807 261.591 17.8807C261.089 17.8807 260.642 17.9872 260.249 18.2003C259.861 18.4086 259.553 18.6998 259.326 19.0739C259.098 19.4432 258.985 19.8646 258.985 20.3381V27H256.861ZM267.614 27.2415C266.923 27.2415 266.298 27.1136 265.739 26.858C265.18 26.5975 264.738 26.2211 264.411 25.7287C264.089 25.2363 263.928 24.6326 263.928 23.9176C263.928 23.3021 264.046 22.7955 264.283 22.3977C264.52 22 264.839 21.6851 265.242 21.4531C265.644 21.2211 266.094 21.0459 266.591 20.9276C267.088 20.8092 267.595 20.7192 268.111 20.6577C268.765 20.5819 269.295 20.5204 269.702 20.473C270.109 20.4209 270.405 20.3381 270.59 20.2244C270.775 20.1108 270.867 19.9261 270.867 19.6705V19.6207C270.867 19.0005 270.692 18.5199 270.341 18.179C269.996 17.8381 269.48 17.6676 268.793 17.6676C268.078 17.6676 267.515 17.8262 267.103 18.1435C266.695 18.456 266.414 18.804 266.257 19.1875L264.262 18.733C264.498 18.0701 264.844 17.535 265.299 17.1278C265.758 16.7159 266.286 16.4176 266.882 16.233C267.479 16.0436 268.106 15.9489 268.765 15.9489C269.2 15.9489 269.662 16.0009 270.15 16.1051C270.642 16.2045 271.101 16.3892 271.527 16.6591C271.958 16.929 272.311 17.3149 272.586 17.8168C272.86 18.3139 272.998 18.9602 272.998 19.7557V27H270.924V25.5085H270.838C270.701 25.7831 270.495 26.053 270.221 26.3182C269.946 26.5833 269.593 26.8035 269.162 26.9787C268.731 27.1539 268.215 27.2415 267.614 27.2415ZM268.076 25.5369C268.663 25.5369 269.165 25.4209 269.581 25.1889C270.003 24.9569 270.322 24.6539 270.54 24.2798C270.763 23.901 270.874 23.4962 270.874 23.0653V21.6591C270.798 21.7348 270.651 21.8059 270.434 21.8722C270.221 21.9337 269.977 21.9882 269.702 22.0355C269.427 22.0781 269.16 22.1184 268.9 22.1562C268.639 22.1894 268.421 22.2178 268.246 22.2415C267.834 22.2936 267.458 22.3812 267.117 22.5043C266.781 22.6274 266.511 22.8049 266.307 23.0369C266.108 23.2642 266.009 23.5672 266.009 23.946C266.009 24.4716 266.203 24.8693 266.591 25.1392C266.98 25.4044 267.474 25.5369 268.076 25.5369ZM284.001 18.7543L282.076 19.0952C281.996 18.849 281.868 18.6146 281.692 18.392C281.522 18.1695 281.29 17.9872 280.996 17.8452C280.703 17.7031 280.336 17.6321 279.896 17.6321C279.294 17.6321 278.792 17.767 278.39 18.0369C277.987 18.3021 277.786 18.6454 277.786 19.0668C277.786 19.4313 277.921 19.7249 278.191 19.9474C278.461 20.17 278.897 20.3523 279.498 20.4943L281.231 20.892C282.235 21.1241 282.983 21.4815 283.475 21.9645C283.968 22.4474 284.214 23.0748 284.214 23.8466C284.214 24.5 284.024 25.0824 283.646 25.5938C283.272 26.1004 282.748 26.4981 282.076 26.7869C281.408 27.0758 280.634 27.2202 279.754 27.2202C278.532 27.2202 277.535 26.9598 276.763 26.4389C275.992 25.9134 275.518 25.1676 275.343 24.2017L277.396 23.8892C277.523 24.4242 277.786 24.8291 278.184 25.1037C278.582 25.3736 279.1 25.5085 279.739 25.5085C280.435 25.5085 280.992 25.3641 281.408 25.0753C281.825 24.7817 282.033 24.4242 282.033 24.0028C282.033 23.6619 281.906 23.3755 281.65 23.1435C281.399 22.9115 281.013 22.7363 280.492 22.6179L278.646 22.2131C277.628 21.9811 276.875 21.6117 276.387 21.1051C275.904 20.5985 275.663 19.9569 275.663 19.1804C275.663 18.5365 275.843 17.973 276.202 17.4901C276.562 17.0071 277.059 16.6307 277.694 16.3608C278.328 16.0862 279.055 15.9489 279.874 15.9489C281.053 15.9489 281.981 16.2045 282.658 16.7159C283.335 17.2225 283.783 17.902 284.001 18.7543ZM286.549 27V16.0909H288.672V27H286.549ZM287.621 14.4077C287.252 14.4077 286.935 14.2846 286.669 14.0384C286.409 13.7874 286.279 13.4891 286.279 13.1435C286.279 12.7931 286.409 12.4948 286.669 12.2486C286.935 11.9976 287.252 11.8722 287.621 11.8722C287.99 11.8722 288.305 11.9976 288.566 12.2486C288.831 12.4948 288.963 12.7931 288.963 13.1435C288.963 13.4891 288.831 13.7874 288.566 14.0384C288.305 14.2846 287.99 14.4077 287.621 14.4077ZM296.993 27V12.4545H299.187V19.4006H299.365L305.466 12.4545H308.228L302.362 19.0028L308.25 27H305.608L300.906 20.5014L299.187 22.4759V27H296.993ZM313.278 27.2415C312.587 27.2415 311.962 27.1136 311.403 26.858C310.844 26.5975 310.402 26.2211 310.075 25.7287C309.753 25.2363 309.592 24.6326 309.592 23.9176C309.592 23.3021 309.71 22.7955 309.947 22.3977C310.184 22 310.503 21.6851 310.906 21.4531C311.308 21.2211 311.758 21.0459 312.255 20.9276C312.752 20.8092 313.259 20.7192 313.775 20.6577C314.429 20.5819 314.959 20.5204 315.366 20.473C315.773 20.4209 316.069 20.3381 316.254 20.2244C316.439 20.1108 316.531 19.9261 316.531 19.6705V19.6207C316.531 19.0005 316.356 18.5199 316.005 18.179C315.66 17.8381 315.144 17.6676 314.457 17.6676C313.742 17.6676 313.179 17.8262 312.767 18.1435C312.359 18.456 312.078 18.804 311.922 19.1875L309.926 18.733C310.163 18.0701 310.508 17.535 310.963 17.1278C311.422 16.7159 311.95 16.4176 312.547 16.233C313.143 16.0436 313.77 15.9489 314.429 15.9489C314.864 15.9489 315.326 16.0009 315.814 16.1051C316.306 16.2045 316.765 16.3892 317.191 16.6591C317.622 16.929 317.975 17.3149 318.25 17.8168C318.524 18.3139 318.662 18.9602 318.662 19.7557V27H316.588V25.5085H316.502C316.365 25.7831 316.159 26.053 315.885 26.3182C315.61 26.5833 315.257 26.8035 314.826 26.9787C314.395 27.1539 313.879 27.2415 313.278 27.2415ZM313.74 25.5369C314.327 25.5369 314.829 25.4209 315.245 25.1889C315.667 24.9569 315.986 24.6539 316.204 24.2798C316.427 23.901 316.538 23.4962 316.538 23.0653V21.6591C316.462 21.7348 316.315 21.8059 316.098 21.8722C315.885 21.9337 315.641 21.9882 315.366 22.0355C315.092 22.0781 314.824 22.1184 314.564 22.1562C314.303 22.1894 314.085 22.2178 313.91 22.2415C313.498 22.2936 313.122 22.3812 312.781 22.5043C312.445 22.6274 312.175 22.8049 311.971 23.0369C311.772 23.2642 311.673 23.5672 311.673 23.946C311.673 24.4716 311.867 24.8693 312.255 25.1392C312.644 25.4044 313.138 25.5369 313.74 25.5369ZM323.614 12.4545V27H321.49V12.4545H323.614ZM331.172 27.2202C330.097 27.2202 329.172 26.9905 328.395 26.5312C327.623 26.0672 327.027 25.4162 326.605 24.5781C326.189 23.7353 325.98 22.7481 325.98 21.6165C325.98 20.4991 326.189 19.5142 326.605 18.6619C327.027 17.8097 327.614 17.1444 328.367 16.6662C329.124 16.188 330.01 15.9489 331.023 15.9489C331.639 15.9489 332.235 16.0507 332.813 16.2543C333.391 16.4579 333.909 16.7775 334.368 17.2131C334.828 17.6487 335.19 18.2145 335.455 18.9105C335.72 19.6018 335.853 20.4422 335.853 21.4318V22.1847H327.181V20.5938H333.772C333.772 20.035 333.658 19.5402 333.431 19.1094C333.203 18.6738 332.884 18.3305 332.472 18.0795C332.065 17.8286 331.587 17.7031 331.037 17.7031C330.441 17.7031 329.92 17.8499 329.475 18.1435C329.034 18.4323 328.694 18.8111 328.452 19.2798C328.215 19.7438 328.097 20.2481 328.097 20.7926V22.0355C328.097 22.7647 328.225 23.3849 328.48 23.8963C328.741 24.4077 329.103 24.7983 329.567 25.0682C330.031 25.3333 330.573 25.4659 331.194 25.4659C331.596 25.4659 331.963 25.4091 332.294 25.2955C332.626 25.1771 332.912 25.0019 333.154 24.7699C333.395 24.5379 333.58 24.2514 333.708 23.9105L335.718 24.2727C335.557 24.8646 335.268 25.383 334.851 25.8281C334.439 26.2685 333.921 26.6117 333.296 26.858C332.676 27.0994 331.968 27.2202 331.172 27.2202ZM340.332 20.5227V27H338.209V16.0909H340.247V17.8665H340.382C340.633 17.2888 341.026 16.8248 341.561 16.4744C342.101 16.1241 342.78 15.9489 343.599 15.9489C344.343 15.9489 344.994 16.1051 345.553 16.4176C346.111 16.7254 346.545 17.1847 346.852 17.7955C347.16 18.4062 347.314 19.1615 347.314 20.0611V27H345.19V20.3168C345.19 19.526 344.984 18.9081 344.572 18.4631C344.161 18.0133 343.595 17.7884 342.875 17.7884C342.383 17.7884 341.945 17.8949 341.561 18.108C341.182 18.321 340.882 18.6335 340.659 19.0455C340.441 19.4527 340.332 19.9451 340.332 20.5227ZM354.246 27.2131C353.365 27.2131 352.579 26.9882 351.888 26.5384C351.201 26.0838 350.661 25.4375 350.268 24.5994C349.88 23.7566 349.686 22.7457 349.686 21.5668C349.686 20.3878 349.883 19.3793 350.276 18.5412C350.673 17.7031 351.218 17.0616 351.909 16.6165C352.6 16.1714 353.384 15.9489 354.26 15.9489C354.937 15.9489 355.482 16.0625 355.893 16.2898C356.31 16.5123 356.632 16.7727 356.859 17.071C357.091 17.3693 357.271 17.6321 357.399 17.8594H357.527V12.4545H359.651V27H357.577V25.3026H357.399C357.271 25.5346 357.087 25.7997 356.845 26.098C356.608 26.3963 356.282 26.6567 355.865 26.8793C355.448 27.1018 354.909 27.2131 354.246 27.2131ZM354.714 25.402C355.325 25.402 355.841 25.241 356.263 24.919C356.689 24.5923 357.011 24.1402 357.229 23.5625C357.451 22.9848 357.562 22.3125 357.562 21.5455C357.562 20.7879 357.454 20.125 357.236 19.5568C357.018 18.9886 356.698 18.5459 356.277 18.2287C355.856 17.9115 355.335 17.7528 354.714 17.7528C354.075 17.7528 353.543 17.9186 353.116 18.25C352.69 18.5814 352.368 19.0336 352.151 19.6065C351.938 20.1795 351.831 20.8258 351.831 21.5455C351.831 22.2746 351.94 22.9304 352.158 23.5128C352.375 24.0952 352.697 24.5568 353.124 24.8977C353.554 25.2339 354.085 25.402 354.714 25.402ZM367.383 27.2202C366.308 27.2202 365.383 26.9905 364.606 26.5312C363.834 26.0672 363.238 25.4162 362.816 24.5781C362.4 23.7353 362.191 22.7481 362.191 21.6165C362.191 20.4991 362.4 19.5142 362.816 18.6619C363.238 17.8097 363.825 17.1444 364.578 16.6662C365.335 16.188 366.221 15.9489 367.234 15.9489C367.85 15.9489 368.446 16.0507 369.024 16.2543C369.601 16.4579 370.12 16.7775 370.579 17.2131C371.038 17.6487 371.401 18.2145 371.666 18.9105C371.931 19.6018 372.064 20.4422 372.064 21.4318V22.1847H363.392V20.5938H369.983C369.983 20.035 369.869 19.5402 369.642 19.1094C369.414 18.6738 369.095 18.3305 368.683 18.0795C368.276 17.8286 367.797 17.7031 367.248 17.7031C366.652 17.7031 366.131 17.8499 365.686 18.1435C365.245 18.4323 364.904 18.8111 364.663 19.2798C364.426 19.7438 364.308 20.2481 364.308 20.7926V22.0355C364.308 22.7647 364.436 23.3849 364.691 23.8963C364.952 24.4077 365.314 24.7983 365.778 25.0682C366.242 25.3333 366.784 25.4659 367.404 25.4659C367.807 25.4659 368.174 25.4091 368.505 25.2955C368.837 25.1771 369.123 25.0019 369.365 24.7699C369.606 24.5379 369.791 24.2514 369.919 23.9105L371.929 24.2727C371.768 24.8646 371.479 25.383 371.062 25.8281C370.65 26.2685 370.132 26.6117 369.507 26.858C368.886 27.0994 368.179 27.2202 367.383 27.2202ZM374.42 27V16.0909H376.472V17.8239H376.586C376.785 17.2367 377.135 16.7751 377.637 16.4389C378.144 16.098 378.717 15.9276 379.356 15.9276C379.488 15.9276 379.645 15.9323 379.825 15.9418C380.009 15.9512 380.154 15.9631 380.258 15.9773V18.0085C380.173 17.9848 380.021 17.9588 379.803 17.9304C379.585 17.8973 379.368 17.8807 379.15 17.8807C378.648 17.8807 378.201 17.9872 377.808 18.2003C377.419 18.4086 377.112 18.6998 376.884 19.0739C376.657 19.4432 376.543 19.8646 376.543 20.3381V27H374.42Z" fill="#121926"/>
</svg>
