<svg width="222" height="40" viewBox="0 0 222 40" fill="none" xmlns="http://www.w3.org/2000/svg">
<rect width="222" height="40" rx="8" fill="#FDECC8"/>
<path d="M20 20H25V25H20V20ZM27 11H26V9H24V11H16V9H14V11H13C11.9 11 11 11.9 11 13V27C11 28.1 11.9 29 13 29H27C28.1 29 29 28.1 29 27V13C29 11.9 28.1 11 27 11ZM27 13V15H13V13H27ZM13 27V17H27V27H13Z" fill="#121926"/>
<path d="M37.598 12.4545H40.2614L44.892 23.7614H45.0625L49.6932 12.4545H52.3565V27H50.2685V16.4744H50.1335L45.8438 26.9787H44.1108L39.821 16.4673H39.6861V27H37.598V12.4545ZM58.5515 27.2415C57.8602 27.2415 57.2352 27.1136 56.6765 26.858C56.1178 26.5975 55.6751 26.2211 55.3484 25.7287C55.0264 25.2363 54.8654 24.6326 54.8654 23.9176C54.8654 23.3021 54.9838 22.7955 55.2205 22.3977C55.4573 22 55.7769 21.6851 56.1793 21.4531C56.5818 21.2211 57.0316 21.0459 57.5288 20.9276C58.0259 20.8092 58.5326 20.7192 59.0487 20.6577C59.7021 20.5819 60.2324 20.5204 60.6396 20.473C61.0468 20.4209 61.3427 20.3381 61.5273 20.2244C61.712 20.1108 61.8043 19.9261 61.8043 19.6705V19.6207C61.8043 19.0005 61.6291 18.5199 61.2788 18.179C60.9331 17.8381 60.417 17.6676 59.7305 17.6676C59.0155 17.6676 58.4521 17.8262 58.0401 18.1435C57.6329 18.456 57.3512 18.804 57.195 19.1875L55.1992 18.733C55.436 18.0701 55.7816 17.535 56.2362 17.1278C56.6954 16.7159 57.2234 16.4176 57.82 16.233C58.4165 16.0436 59.0439 15.9489 59.7021 15.9489C60.1377 15.9489 60.5993 16.0009 61.087 16.1051C61.5794 16.2045 62.0387 16.3892 62.4648 16.6591C62.8957 16.929 63.2485 17.3149 63.5231 17.8168C63.7977 18.3139 63.935 18.9602 63.935 19.7557V27H61.8612V25.5085H61.7759C61.6386 25.7831 61.4326 26.053 61.158 26.3182C60.8834 26.5833 60.5307 26.8035 60.0998 26.9787C59.6689 27.1539 59.1528 27.2415 58.5515 27.2415ZM59.0131 25.5369C59.6003 25.5369 60.1022 25.4209 60.5188 25.1889C60.9402 24.9569 61.2598 24.6539 61.4776 24.2798C61.7002 23.901 61.8114 23.4962 61.8114 23.0653V21.6591C61.7357 21.7348 61.5889 21.8059 61.3711 21.8722C61.158 21.9337 60.9142 21.9882 60.6396 22.0355C60.3649 22.0781 60.0974 22.1184 59.837 22.1562C59.5766 22.1894 59.3588 22.2178 59.1836 22.2415C58.7717 22.2936 58.3952 22.3812 58.0543 22.5043C57.7182 22.6274 57.4483 22.8049 57.2447 23.0369C57.0458 23.2642 56.9464 23.5672 56.9464 23.946C56.9464 24.4716 57.1405 24.8693 57.5288 25.1392C57.917 25.4044 58.4118 25.5369 59.0131 25.5369ZM68.8871 20.5227V27H66.7635V16.0909H68.8018V17.8665H68.9368C69.1877 17.2888 69.5807 16.8248 70.1158 16.4744C70.6555 16.1241 71.335 15.9489 72.1541 15.9489C72.8975 15.9489 73.5485 16.1051 74.1072 16.4176C74.666 16.7254 75.0992 17.1847 75.407 17.7955C75.7147 18.4062 75.8686 19.1615 75.8686 20.0611V27H73.745V20.3168C73.745 19.526 73.5391 18.9081 73.1271 18.4631C72.7152 18.0133 72.1494 17.7884 71.4297 17.7884C70.9373 17.7884 70.4993 17.8949 70.1158 18.108C69.737 18.321 69.4363 18.6335 69.2138 19.0455C68.996 19.4527 68.8871 19.9451 68.8871 20.5227ZM81.8913 27.2415C81.2 27.2415 80.575 27.1136 80.0163 26.858C79.4576 26.5975 79.0149 26.2211 78.6882 25.7287C78.3662 25.2363 78.2053 24.6326 78.2053 23.9176C78.2053 23.3021 78.3236 22.7955 78.5604 22.3977C78.7971 22 79.1167 21.6851 79.5192 21.4531C79.9216 21.2211 80.3714 21.0459 80.8686 20.9276C81.3658 20.8092 81.8724 20.7192 82.3885 20.6577C83.0419 20.5819 83.5722 20.5204 83.9794 20.473C84.3866 20.4209 84.6825 20.3381 84.8672 20.2244C85.0518 20.1108 85.1442 19.9261 85.1442 19.6705V19.6207C85.1442 19.0005 84.969 18.5199 84.6186 18.179C84.273 17.8381 83.7569 17.6676 83.0703 17.6676C82.3554 17.6676 81.7919 17.8262 81.38 18.1435C80.9728 18.456 80.6911 18.804 80.5348 19.1875L78.5391 18.733C78.7758 18.0701 79.1214 17.535 79.576 17.1278C80.0353 16.7159 80.5632 16.4176 81.1598 16.233C81.7564 16.0436 82.3838 15.9489 83.0419 15.9489C83.4775 15.9489 83.9392 16.0009 84.4268 16.1051C84.9193 16.2045 85.3786 16.3892 85.8047 16.6591C86.2356 16.929 86.5883 17.3149 86.8629 17.8168C87.1375 18.3139 87.2749 18.9602 87.2749 19.7557V27H85.201V25.5085H85.1158C84.9785 25.7831 84.7725 26.053 84.4979 26.3182C84.2232 26.5833 83.8705 26.8035 83.4396 26.9787C83.0088 27.1539 82.4927 27.2415 81.8913 27.2415ZM82.353 25.5369C82.9401 25.5369 83.442 25.4209 83.8587 25.1889C84.2801 24.9569 84.5997 24.6539 84.8175 24.2798C85.04 23.901 85.1513 23.4962 85.1513 23.0653V21.6591C85.0755 21.7348 84.9287 21.8059 84.7109 21.8722C84.4979 21.9337 84.254 21.9882 83.9794 22.0355C83.7048 22.0781 83.4373 22.1184 83.1768 22.1562C82.9164 22.1894 82.6986 22.2178 82.5234 22.2415C82.1115 22.2936 81.7351 22.3812 81.3942 22.5043C81.058 22.6274 80.7881 22.8049 80.5845 23.0369C80.3857 23.2642 80.2862 23.5672 80.2862 23.946C80.2862 24.4716 80.4804 24.8693 80.8686 25.1392C81.2569 25.4044 81.7517 25.5369 82.353 25.5369ZM90.1033 16.0909H92.2269V27.7102C92.2269 28.4394 92.0943 29.0549 91.8292 29.5568C91.5688 30.0587 91.1805 30.4399 90.6644 30.7003C90.1531 30.9607 89.521 31.0909 88.7681 31.0909C88.6924 31.0909 88.6213 31.0909 88.555 31.0909C88.484 31.0909 88.4106 31.0885 88.3349 31.0838V29.2585C88.4012 29.2585 88.4603 29.2585 88.5124 29.2585C88.5598 29.2585 88.6142 29.2585 88.6758 29.2585C89.1777 29.2585 89.5399 29.1236 89.7624 28.8537C89.9897 28.5885 90.1033 28.2027 90.1033 27.696V16.0909ZM91.1545 14.4077C90.7852 14.4077 90.4679 14.2846 90.2028 14.0384C89.9424 13.7874 89.8121 13.4891 89.8121 13.1435C89.8121 12.7931 89.9424 12.4948 90.2028 12.2486C90.4679 11.9976 90.7852 11.8722 91.1545 11.8722C91.5238 11.8722 91.8387 11.9976 92.0991 12.2486C92.3642 12.4948 92.4968 12.7931 92.4968 13.1435C92.4968 13.4891 92.3642 13.7874 92.0991 14.0384C91.8387 14.2846 91.5238 14.4077 91.1545 14.4077ZM99.7855 27.2202C98.7107 27.2202 97.785 26.9905 97.0085 26.5312C96.2367 26.0672 95.6402 25.4162 95.2188 24.5781C94.8021 23.7353 94.5938 22.7481 94.5938 21.6165C94.5938 20.4991 94.8021 19.5142 95.2188 18.6619C95.6402 17.8097 96.2273 17.1444 96.9801 16.6662C97.7377 16.188 98.6231 15.9489 99.6364 15.9489C100.252 15.9489 100.848 16.0507 101.426 16.2543C102.004 16.4579 102.522 16.7775 102.982 17.2131C103.441 17.6487 103.803 18.2145 104.068 18.9105C104.333 19.6018 104.466 20.4422 104.466 21.4318V22.1847H95.794V20.5938H102.385C102.385 20.035 102.271 19.5402 102.044 19.1094C101.817 18.6738 101.497 18.3305 101.085 18.0795C100.678 17.8286 100.2 17.7031 99.6506 17.7031C99.054 17.7031 98.5331 17.8499 98.0881 18.1435C97.6477 18.4323 97.3068 18.8111 97.0653 19.2798C96.8286 19.7438 96.7102 20.2481 96.7102 20.7926V22.0355C96.7102 22.7647 96.8381 23.3849 97.0938 23.8963C97.3542 24.4077 97.7164 24.7983 98.1804 25.0682C98.6444 25.3333 99.1866 25.4659 99.8068 25.4659C100.209 25.4659 100.576 25.4091 100.908 25.2955C101.239 25.1771 101.526 25.0019 101.767 24.7699C102.009 24.5379 102.193 24.2514 102.321 23.9105L104.331 24.2727C104.17 24.8646 103.881 25.383 103.464 25.8281C103.053 26.2685 102.534 26.6117 101.909 26.858C101.289 27.0994 100.581 27.2202 99.7855 27.2202ZM106.822 27V16.0909H108.86V17.8665H108.995C109.223 17.2652 109.594 16.7964 110.11 16.4602C110.627 16.1193 111.244 15.9489 111.964 15.9489C112.693 15.9489 113.304 16.1193 113.797 16.4602C114.294 16.8011 114.661 17.2699 114.897 17.8665H115.011C115.271 17.2841 115.686 16.8201 116.254 16.4744C116.822 16.1241 117.499 15.9489 118.285 15.9489C119.275 15.9489 120.082 16.259 120.707 16.8793C121.337 17.4995 121.652 18.4347 121.652 19.6847V27H119.528V19.8835C119.528 19.1449 119.327 18.6098 118.924 18.2784C118.522 17.947 118.041 17.7812 117.483 17.7812C116.791 17.7812 116.254 17.9943 115.87 18.4205C115.487 18.8419 115.295 19.384 115.295 20.0469V27H113.179V19.7486C113.179 19.1567 112.994 18.6809 112.625 18.321C112.255 17.9612 111.775 17.7812 111.183 17.7812C110.78 17.7812 110.409 17.8878 110.068 18.1009C109.732 18.3092 109.459 18.6004 109.251 18.9744C109.047 19.3485 108.946 19.7817 108.946 20.2741V27H106.822ZM129.2 27.2202C128.125 27.2202 127.199 26.9905 126.423 26.5312C125.651 26.0672 125.054 25.4162 124.633 24.5781C124.216 23.7353 124.008 22.7481 124.008 21.6165C124.008 20.4991 124.216 19.5142 124.633 18.6619C125.054 17.8097 125.641 17.1444 126.394 16.6662C127.152 16.188 128.037 15.9489 129.05 15.9489C129.666 15.9489 130.263 16.0507 130.84 16.2543C131.418 16.4579 131.936 16.7775 132.396 17.2131C132.855 17.6487 133.217 18.2145 133.482 18.9105C133.747 19.6018 133.88 20.4422 133.88 21.4318V22.1847H125.208V20.5938H131.799C131.799 20.035 131.685 19.5402 131.458 19.1094C131.231 18.6738 130.911 18.3305 130.499 18.0795C130.092 17.8286 129.614 17.7031 129.065 17.7031C128.468 17.7031 127.947 17.8499 127.502 18.1435C127.062 18.4323 126.721 18.8111 126.479 19.2798C126.243 19.7438 126.124 20.2481 126.124 20.7926V22.0355C126.124 22.7647 126.252 23.3849 126.508 23.8963C126.768 24.4077 127.13 24.7983 127.594 25.0682C128.058 25.3333 128.601 25.4659 129.221 25.4659C129.623 25.4659 129.99 25.4091 130.322 25.2955C130.653 25.1771 130.94 25.0019 131.181 24.7699C131.423 24.5379 131.607 24.2514 131.735 23.9105L133.745 24.2727C133.584 24.8646 133.295 25.383 132.879 25.8281C132.467 26.2685 131.948 26.6117 131.323 26.858C130.703 27.0994 129.995 27.2202 129.2 27.2202ZM138.36 20.5227V27H136.236V16.0909H138.275V17.8665H138.409C138.66 17.2888 139.053 16.8248 139.588 16.4744C140.128 16.1241 140.808 15.9489 141.627 15.9489C142.37 15.9489 143.021 16.1051 143.58 16.4176C144.139 16.7254 144.572 17.1847 144.88 17.7955C145.187 18.4062 145.341 19.1615 145.341 20.0611V27H143.218V20.3168C143.218 19.526 143.012 18.9081 142.6 18.4631C142.188 18.0133 141.622 17.7884 140.902 17.7884C140.41 17.7884 139.972 17.8949 139.588 18.108C139.21 18.321 138.909 18.6335 138.686 19.0455C138.469 19.4527 138.36 19.9451 138.36 20.5227ZM152.935 14.3438V12.4545H164.192V14.3438H159.654V27H157.467V14.3438H152.935ZM171.936 22.4759V16.0909H174.066V27H171.978V25.1108H171.865C171.614 25.6932 171.211 26.1785 170.657 26.5668C170.108 26.9503 169.424 27.142 168.605 27.142C167.904 27.142 167.284 26.9882 166.744 26.6804C166.209 26.3679 165.788 25.9062 165.48 25.2955C165.177 24.6847 165.025 23.9295 165.025 23.0298V16.0909H167.149V22.7741C167.149 23.5175 167.355 24.1094 167.767 24.5497C168.179 24.9901 168.714 25.2102 169.372 25.2102C169.77 25.2102 170.165 25.1108 170.558 24.9119C170.956 24.7131 171.285 24.4124 171.545 24.0099C171.81 23.6075 171.94 23.0961 171.936 22.4759ZM181.494 31.3182C180.627 31.3182 179.881 31.2045 179.256 30.9773C178.636 30.75 178.129 30.4493 177.737 30.0753C177.344 29.7012 177.05 29.2917 176.856 28.8466L178.681 28.0938C178.809 28.3021 178.979 28.5223 179.192 28.7543C179.41 28.991 179.704 29.1922 180.073 29.358C180.447 29.5237 180.928 29.6065 181.515 29.6065C182.32 29.6065 182.985 29.41 183.511 29.017C184.036 28.6288 184.299 28.0085 184.299 27.1562V25.0114H184.164C184.036 25.2434 183.852 25.5014 183.61 25.7855C183.373 26.0696 183.047 26.3158 182.63 26.5241C182.213 26.7325 181.671 26.8366 181.004 26.8366C180.142 26.8366 179.365 26.6354 178.674 26.233C177.987 25.8258 177.443 25.2268 177.04 24.4361C176.643 23.6406 176.444 22.6629 176.444 21.5028C176.444 20.3428 176.64 19.3485 177.033 18.5199C177.431 17.6913 177.976 17.0568 178.667 16.6165C179.358 16.1714 180.142 15.9489 181.018 15.9489C181.695 15.9489 182.242 16.0625 182.658 16.2898C183.075 16.5123 183.399 16.7727 183.631 17.071C183.868 17.3693 184.05 17.6321 184.178 17.8594H184.335V16.0909H186.415V27.2415C186.415 28.179 186.198 28.9484 185.762 29.5497C185.326 30.151 184.737 30.5961 183.994 30.8849C183.255 31.1738 182.422 31.3182 181.494 31.3182ZM181.472 25.0753C182.083 25.0753 182.599 24.9332 183.021 24.6491C183.447 24.3603 183.769 23.9484 183.987 23.4134C184.209 22.8736 184.32 22.2273 184.32 21.4744C184.32 20.7405 184.211 20.0942 183.994 19.5355C183.776 18.9768 183.456 18.5412 183.035 18.2287C182.613 17.9115 182.093 17.7528 181.472 17.7528C180.833 17.7528 180.3 17.9186 179.874 18.25C179.448 18.5767 179.126 19.0218 178.908 19.5852C178.695 20.1487 178.589 20.7784 178.589 21.4744C178.589 22.1894 178.698 22.8168 178.915 23.3565C179.133 23.8963 179.455 24.3177 179.881 24.6207C180.312 24.9238 180.843 25.0753 181.472 25.0753ZM192.438 27.2415C191.747 27.2415 191.122 27.1136 190.563 26.858C190.004 26.5975 189.562 26.2211 189.235 25.7287C188.913 25.2363 188.752 24.6326 188.752 23.9176C188.752 23.3021 188.871 22.7955 189.107 22.3977C189.344 22 189.664 21.6851 190.066 21.4531C190.469 21.2211 190.918 21.0459 191.415 20.9276C191.913 20.8092 192.419 20.7192 192.935 20.6577C193.589 20.5819 194.119 20.5204 194.526 20.473C194.933 20.4209 195.229 20.3381 195.414 20.2244C195.599 20.1108 195.691 19.9261 195.691 19.6705V19.6207C195.691 19.0005 195.516 18.5199 195.165 18.179C194.82 17.8381 194.304 17.6676 193.617 17.6676C192.902 17.6676 192.339 17.8262 191.927 18.1435C191.52 18.456 191.238 18.804 191.082 19.1875L189.086 18.733C189.323 18.0701 189.668 17.535 190.123 17.1278C190.582 16.7159 191.11 16.4176 191.707 16.233C192.303 16.0436 192.931 15.9489 193.589 15.9489C194.024 15.9489 194.486 16.0009 194.974 16.1051C195.466 16.2045 195.925 16.3892 196.352 16.6591C196.782 16.929 197.135 17.3149 197.41 17.8168C197.684 18.3139 197.822 18.9602 197.822 19.7557V27H195.748V25.5085H195.663C195.525 25.7831 195.319 26.053 195.045 26.3182C194.77 26.5833 194.417 26.8035 193.987 26.9787C193.556 27.1539 193.04 27.2415 192.438 27.2415ZM192.9 25.5369C193.487 25.5369 193.989 25.4209 194.406 25.1889C194.827 24.9569 195.147 24.6539 195.364 24.2798C195.587 23.901 195.698 23.4962 195.698 23.0653V21.6591C195.622 21.7348 195.476 21.8059 195.258 21.8722C195.045 21.9337 194.801 21.9882 194.526 22.0355C194.252 22.0781 193.984 22.1184 193.724 22.1562C193.463 22.1894 193.246 22.2178 193.07 22.2415C192.658 22.2936 192.282 22.3812 191.941 22.5043C191.605 22.6274 191.335 22.8049 191.131 23.0369C190.933 23.2642 190.833 23.5672 190.833 23.946C190.833 24.4716 191.027 24.8693 191.415 25.1392C191.804 25.4044 192.299 25.5369 192.9 25.5369ZM208.825 18.7543L206.9 19.0952C206.82 18.849 206.692 18.6146 206.517 18.392C206.346 18.1695 206.114 17.9872 205.821 17.8452C205.527 17.7031 205.16 17.6321 204.72 17.6321C204.118 17.6321 203.617 17.767 203.214 18.0369C202.812 18.3021 202.61 18.6454 202.61 19.0668C202.61 19.4313 202.745 19.7249 203.015 19.9474C203.285 20.17 203.721 20.3523 204.322 20.4943L206.055 20.892C207.059 21.1241 207.807 21.4815 208.299 21.9645C208.792 22.4474 209.038 23.0748 209.038 23.8466C209.038 24.5 208.849 25.0824 208.47 25.5938C208.096 26.1004 207.573 26.4981 206.9 26.7869C206.233 27.0758 205.458 27.2202 204.578 27.2202C203.356 27.2202 202.359 26.9598 201.588 26.4389C200.816 25.9134 200.342 25.1676 200.167 24.2017L202.22 23.8892C202.348 24.4242 202.61 24.8291 203.008 25.1037C203.406 25.3736 203.924 25.5085 204.564 25.5085C205.26 25.5085 205.816 25.3641 206.233 25.0753C206.649 24.7817 206.858 24.4242 206.858 24.0028C206.858 23.6619 206.73 23.3755 206.474 23.1435C206.223 22.9115 205.837 22.7363 205.316 22.6179L203.47 22.2131C202.452 21.9811 201.699 21.6117 201.211 21.1051C200.728 20.5985 200.487 19.9569 200.487 19.1804C200.487 18.5365 200.667 17.973 201.027 17.4901C201.386 17.0071 201.884 16.6307 202.518 16.3608C203.153 16.0862 203.879 15.9489 204.699 15.9489C205.877 15.9489 206.806 16.2045 207.483 16.7159C208.16 17.2225 208.607 17.902 208.825 18.7543Z" fill="#121926"/>
</svg>
